<svg width="36" height="34" viewBox="0 0 36 34" fill="none" xmlns="http://www.w3.org/2000/svg">
<path d="M4.875 6.75757H35L30.18 22.4226H7.8875L4.875 6.75757Z" fill="white"/>
<path d="M7.82666 23.0251H10.2367V25.4351H31.3242V27.8451H27.1067L26.5042 32.0626L25.2992 32.6651L23.4917 32.0626V27.8451H18.6717H14.4542L13.8517 31.4601L12.6467 32.6651L10.8392 32.0626V28.4476L7.82666 27.8451V23.0251Z" fill="black"/>
<path d="M34.9392 6.75746H4.81418L7.82668 21.2175V27.845H10.8392V31.46C10.8392 32.665 13.8517 32.665 13.8517 31.46V27.845H23.4917V31.46C23.4917 32.665 26.5042 32.665 26.5042 31.46V27.845H31.9267V26.0375H9.63418V22.4225H30.1192L34.9392 6.75746Z" fill="white"/>
<path d="M0.59668 1.33496H4.81418V6.75746M4.81418 6.75746H34.9392L30.1192 22.4225H9.63418M4.81418 6.75746L7.82668 21.2175V27.845H10.8392V31.46C10.8392 32.665 13.8517 32.665 13.8517 31.46V27.845H23.4917V31.46C23.4917 32.665 26.5042 32.665 26.5042 31.46V27.845H31.9267V26.0375H9.63418V22.4225M9.63418 22.4225H7.82668" stroke="black" stroke-width="1.5"/>
</svg>
