<svg width="167" height="58" viewBox="0 0 167 58" fill="none" xmlns="http://www.w3.org/2000/svg">
<path d="M31.332 0.756592L39.8435 19.9218L58 24.9653L43.8783 38.0783L44.3826 57.2436L26.7304 47.6609L9.07826 55.2262L12.6087 34.5479L0 19.9218H18.1565L31.332 0.756592Z" fill="black"/>
<path d="M31.0103 5.25659L38.3478 21.7783L54 26.1262L41.8261 37.4305L42.2609 53.9522L27.0435 45.6914L11.8261 52.2131L14.8696 34.387L4 21.7783H19.6522L31.0103 5.25659Z" fill="white"/>
<path d="M34.0001 40.2566C31.5001 41.7565 24.5001 42.2565 23.0001 41.2565C21.5001 40.2566 18.5001 34.7566 20.0001 35.7566C21.5001 36.7566 21.5001 38.2566 24.0001 39.2566C26.5001 40.2566 26.1862 40.2034 29.5001 39.2566C32.814 38.3098 34.5001 34.2566 36.0001 34.2566C37.5001 34.2566 36.5001 38.7567 34.0001 40.2566Z" fill="black"/>
<path d="M31.0001 17.2565C31.6102 18.3401 24.5001 12.7566 24.5001 12.7566L31.0001 3.25659L34.5001 10.2565C29.3087 9.46492 30.39 16.1729 31.0001 17.2565Z" fill="black"/>
<path d="M34.0001 40.2566C31.5001 41.7565 24.5001 42.2565 23.0001 41.2565C21.5001 40.2566 18.5001 34.7566 20.0001 35.7566C21.5001 36.7566 21.5001 38.2566 24.0001 39.2566C26.5001 40.2566 26.1862 40.2034 29.5001 39.2566C32.814 38.3098 34.5001 34.2566 36.0001 34.2566C37.5001 34.2566 36.5001 38.7567 34.0001 40.2566Z" stroke="black"/>
<path d="M31.0001 17.2565C31.6102 18.3401 24.5001 12.7566 24.5001 12.7566L31.0001 3.25659L34.5001 10.2565C29.3087 9.46492 30.39 16.1729 31.0001 17.2565Z" stroke="black"/>
<path d="M25 27.7567C25 29.4135 24.1046 30.7567 23 30.7567C21.8954 30.7567 21 29.4135 21 27.7567C21 26.0998 21.8954 24.7567 23 24.7567C24.1046 24.7567 25 26.0998 25 27.7567Z" fill="black"/>
<path d="M35.657 27.622C35.2843 29.2363 34.1097 30.3436 33.0335 30.0952C31.9572 29.8467 31.3869 28.3365 31.7596 26.7222C32.1323 25.1078 33.3069 24.0005 34.3832 24.2489C35.4594 24.4974 36.0298 26.0076 35.657 27.622Z" fill="black"/>
<path d="M89.12 42.4C88.7733 41.9467 88.48 41.4533 88.24 40.92C88 40.36 87.7467 39.6933 87.48 38.92C87.4267 38.7867 87.2667 38.3867 87 37.72C86.76 37.0533 86.48 36.48 86.16 36C84.48 36.24 83.1067 36.36 82.04 36.36C81.4533 36.36 80.8 36.3467 80.08 36.32C79.3867 36.2667 78.8667 36.24 78.52 36.24C77.1867 36.1333 76.12 36.08 75.32 36.08C75 36.5067 74.72 36.96 74.48 37.44C74.2667 37.92 73.9867 38.64 73.64 39.6C73.16 40.9867 72.7467 41.9733 72.4 42.56C72.16 42.96 71.6933 43.16 71 43.16C70.4133 43.16 69.8667 43.04 69.36 42.8C68.88 42.5333 68.64 42.1733 68.64 41.72C68.8533 40.7067 69.1867 39.64 69.64 38.52C70.12 37.3733 70.8 35.8533 71.68 33.96L73.28 30.04C74.16 27.8 74.96 25.88 75.68 24.28C76.4267 22.68 77.4 20.7867 78.6 18.6C78.76 18.28 79.0267 18.0133 79.4 17.8C79.7733 17.56 80.1867 17.44 80.64 17.44C81.1467 17.44 81.5067 17.48 81.72 17.56C81.96 17.6133 82.1467 17.72 82.28 17.88C82.4133 18.0133 82.6133 18.3067 82.88 18.76C83.7867 20.1733 84.56 21.6267 85.2 23.12C85.8667 24.6133 86.7067 26.68 87.72 29.32L88.56 31.44C89.3067 33.36 89.9467 34.9733 90.48 36.28C91.04 37.56 91.6533 38.7333 92.32 39.8C92.7467 40.4933 92.96 40.9733 92.96 41.24C92.96 41.88 92.76 42.3733 92.36 42.72C91.9867 43.04 91.4933 43.2 90.88 43.2C90.1067 43.2 89.52 42.9333 89.12 42.4ZM85 32.72C84.5733 31.8133 83.96 30.24 83.16 28C82.3333 25.6 81.5067 23.6933 80.68 22.28C80.1733 23.56 79.4267 25.2133 78.44 27.24C77.7733 28.4933 77.0133 30.3067 76.16 32.68C77.8667 32.8933 79.7067 33 81.68 33C83.0933 33 84.2 32.9067 85 32.72ZM100.186 36.8C100.186 37.8133 100.333 38.6 100.626 39.16C100.946 39.6933 101.346 39.96 101.826 39.96C102.093 39.96 102.346 39.9467 102.586 39.92C102.826 39.8667 103.066 39.84 103.306 39.84C103.573 39.84 103.799 39.9733 103.986 40.24C104.199 40.5067 104.306 40.8 104.306 41.12C104.306 41.76 103.999 42.2667 103.386 42.64C102.799 42.9867 101.999 43.16 100.986 43.16C100.266 43.16 99.5326 42.9467 98.7859 42.52C98.0659 42.0667 97.4659 41.3733 96.9859 40.44C96.5059 39.48 96.2659 38.2933 96.2659 36.88C96.2659 33.84 96.3193 31.2667 96.4259 29.16C96.5593 26.6533 96.6259 23.4933 96.6259 19.68C96.6259 18.48 96.6926 17.64 96.8259 17.16C96.9859 16.7867 97.2393 16.5067 97.5859 16.32C97.9593 16.1067 98.3459 16 98.7459 16C99.1459 16 99.4926 16.0667 99.7859 16.2C100.106 16.3333 100.319 16.5467 100.426 16.84C100.533 17.16 100.599 17.48 100.626 17.8C100.679 18.0933 100.706 18.52 100.706 19.08C100.706 20.1733 100.666 21.2267 100.586 22.24C100.533 23.4667 100.506 24.36 100.506 24.92C100.293 29.6133 100.186 33.5733 100.186 36.8ZM107.034 29.08C106.661 29.0267 106.354 28.88 106.114 28.64C105.901 28.3733 105.794 28.0533 105.794 27.68C105.794 27.2 105.981 26.8 106.354 26.48C106.434 26.4 106.567 26.3333 106.754 26.28C106.941 26.2 107.087 26.1333 107.194 26.08C107.781 25.8933 108.154 25.7467 108.314 25.64C108.927 25.2667 109.341 24.6533 109.554 23.8C109.767 22.7867 109.901 22.0933 109.954 21.72C110.007 21.1333 110.194 20.6933 110.514 20.4C110.861 20.08 111.287 19.92 111.794 19.92C112.461 19.92 112.927 20.0933 113.194 20.44C113.461 20.7867 113.594 21.4267 113.594 22.36C113.594 23.5867 113.301 24.7467 112.714 25.84C113.087 25.84 113.701 25.8133 114.554 25.76C115.834 25.7067 116.727 25.68 117.234 25.68C117.687 25.68 118.074 25.8 118.394 26.04C118.741 26.2533 118.914 26.5733 118.914 27C118.914 28.0133 118.447 28.6133 117.514 28.8C116.661 29.04 115.114 29.1867 112.874 29.24C112.687 31.8533 112.594 33.92 112.594 35.44C112.594 36.3733 112.634 37.04 112.714 37.44C112.874 38.2667 113.141 38.88 113.514 39.28C113.914 39.6533 114.501 39.84 115.274 39.84C115.647 39.84 116.207 39.7467 116.954 39.56C117.407 39.4267 117.767 39.36 118.034 39.36C118.381 39.36 118.647 39.48 118.834 39.72C119.021 39.96 119.114 40.28 119.114 40.68C119.114 41.4 118.647 42 117.714 42.48C116.781 42.9333 115.674 43.16 114.394 43.16C113.594 43.16 112.807 42.9733 112.034 42.6C111.261 42.2 110.607 41.72 110.074 41.16C109.967 41.1067 109.807 40.8133 109.594 40.28C109.407 39.7467 109.221 39.16 109.034 38.52C108.954 38.2 108.914 37.4267 108.914 36.2C108.914 35.0267 108.994 33 109.154 30.12L109.194 29.24C109.007 29.24 108.661 29.2267 108.154 29.2C107.647 29.1467 107.274 29.1067 107.034 29.08ZM140.195 41.08C140.195 41.6667 139.875 42.16 139.235 42.56C138.622 42.96 138.048 43.16 137.515 43.16C136.502 43.16 135.688 43.04 135.075 42.8C134.488 42.5333 133.942 42.0533 133.435 41.36C132.742 41.9733 131.795 42.44 130.595 42.76C129.395 43.0533 128.288 43.2 127.275 43.2C125.622 43.2 124.262 42.76 123.195 41.88C122.128 40.9733 121.595 39.6533 121.595 37.92C121.595 37.1733 121.795 36.4933 122.195 35.88C122.595 35.24 123.142 34.68 123.835 34.2C124.608 33.6933 125.488 33.3067 126.475 33.04C127.462 32.7467 128.488 32.6 129.555 32.6C130.115 32.6 130.782 32.7067 131.555 32.92C132.328 33.1333 132.928 33.36 133.355 33.6V32.96C133.355 31.52 133.008 30.5333 132.315 30C131.622 29.44 130.502 29.16 128.955 29.16C128.502 29.16 128.048 29.2533 127.595 29.44C127.168 29.6267 126.675 29.88 126.115 30.2C125.368 30.6 124.662 30.8 123.995 30.8C123.755 30.8 123.528 30.64 123.315 30.32C123.102 29.9733 122.995 29.6667 122.995 29.4C122.995 28.6267 123.355 27.96 124.075 27.4C124.822 26.84 125.702 26.4267 126.715 26.16C127.728 25.8667 128.635 25.72 129.435 25.72C130.235 25.72 131.155 25.88 132.195 26.2C133.235 26.4933 134.088 26.9067 134.755 27.44C135.555 28.1333 136.168 28.9467 136.595 29.88C137.048 30.7867 137.275 31.7867 137.275 32.88C137.275 33.2267 137.248 33.7467 137.195 34.44C137.142 35.1867 137.115 35.8267 137.115 36.36C137.115 36.6 137.088 36.96 137.035 37.44C136.982 38.0267 136.955 38.4933 136.955 38.84C136.955 39.16 137.075 39.44 137.315 39.68C137.555 39.8933 137.835 40 138.155 40L139.275 39.96C139.568 39.96 139.795 40.0667 139.955 40.28C140.115 40.4933 140.195 40.76 140.195 41.08ZM127.315 40.04C128.462 40.04 129.422 39.92 130.195 39.68C130.968 39.44 131.902 39 132.995 38.36C133.102 37.9067 133.168 37.3067 133.195 36.56C131.728 35.8667 130.515 35.52 129.555 35.52C128.462 35.52 127.488 35.72 126.635 36.12C125.782 36.52 125.355 37.2267 125.355 38.24C125.355 38.7467 125.568 39.1733 125.995 39.52C126.422 39.8667 126.862 40.04 127.315 40.04ZM144.894 17.32C145.828 17.4 146.641 17.6533 147.334 18.08C148.028 18.48 148.374 19.0933 148.374 19.92C148.374 20.5333 148.081 21.0267 147.494 21.4C146.934 21.7467 146.254 21.92 145.454 21.92C144.681 21.92 144.148 21.72 143.854 21.32C143.561 20.92 143.414 20.5067 143.414 20.08C143.414 19.28 143.494 18.6133 143.654 18.08C143.841 17.5467 144.254 17.2933 144.894 17.32ZM148.094 35.04V36.2C148.094 37.24 148.121 38.2267 148.174 39.16C148.254 40.0667 148.348 40.9867 148.454 41.92C148.454 42.24 148.268 42.5333 147.894 42.8C147.521 43.04 147.174 43.16 146.854 43.16C146.348 43.16 145.828 43.0667 145.294 42.88C144.788 42.6667 144.481 42.4133 144.374 42.12C144.214 41.2667 144.134 40.5067 144.134 39.84C144.134 37.6533 144.068 35.2 143.934 32.48C143.828 30.08 143.774 28.4 143.774 27.44C143.774 26.96 144.014 26.5467 144.494 26.2C144.974 25.8533 145.481 25.68 146.014 25.68C146.788 25.68 147.321 25.8533 147.614 26.2C147.934 26.5467 148.094 27.0933 148.094 27.84V35.04ZM158.649 41.4C158.595 41.8533 158.409 42.2533 158.089 42.6C157.769 42.9467 157.355 43.12 156.849 43.12C156.049 43.12 155.462 42.9733 155.089 42.68C154.715 42.36 154.529 41.7867 154.529 40.96C154.529 39.84 154.595 38.6133 154.729 37.28C154.835 35.7333 154.889 34.5467 154.889 33.72C154.889 33.2933 154.862 32.76 154.809 32.12C154.755 31.5333 154.729 31.0933 154.729 30.8C154.649 30.3467 154.462 29.9867 154.169 29.72C153.902 29.4533 153.475 29.2267 152.889 29.04C152.649 28.9333 152.449 28.76 152.289 28.52C152.129 28.2533 152.049 28.0133 152.049 27.8C152.049 27.1867 152.289 26.72 152.769 26.4C153.249 26.08 153.835 25.92 154.529 25.92C155.302 25.92 155.969 26.1867 156.529 26.72C157.089 27.2533 157.515 27.92 157.809 28.72C158.422 27.84 159.169 27.1333 160.049 26.6C160.955 26.0667 161.835 25.8 162.689 25.8C163.782 25.8 164.702 25.9867 165.449 26.36C166.222 26.7067 166.609 27.32 166.609 28.2C166.609 28.7067 166.382 29.24 165.929 29.8C165.502 30.3333 165.062 30.6 164.609 30.6C164.262 30.6 163.849 30.44 163.369 30.12C163.182 29.9867 162.969 29.88 162.729 29.8C162.515 29.6933 162.289 29.64 162.049 29.64C161.622 29.64 161.222 29.7067 160.849 29.84C160.475 29.9733 160.222 30.1333 160.089 30.32C159.662 30.9867 159.342 31.5867 159.129 32.12C158.942 32.6533 158.849 33.2267 158.849 33.84C158.849 34.2933 158.835 34.6533 158.809 34.92L158.769 37.2L158.809 38.72C158.809 39.84 158.755 40.7333 158.649 41.4Z" fill="white"/>
</svg>
