<svg width="28" height="41" viewBox="0 0 28 41" fill="none" xmlns="http://www.w3.org/2000/svg">
<path d="M2.5 22.75L4.5 20.75L7.5 19.75L10 21.25L11.5 25.75L14.5 29.25L19.5 19.25L24.5 22.25L27 26.75V34.75L22.5 39.75H12H6L1.5 36.75L1 28.25L2.5 22.75Z" fill="white"/>
<circle cx="14" cy="9.25" r="8" fill="white"/>
<path fill-rule="evenodd" clip-rule="evenodd" d="M14 18.25C18.9706 18.25 23 14.2206 23 9.25C23 4.27944 18.9706 0.25 14 0.25C9.02944 0.25 5 4.27944 5 9.25C5 14.2206 9.02944 18.25 14 18.25ZM14 16.25C17.866 16.25 21 13.116 21 9.25C21 5.38401 17.866 2.25 14 2.25C10.134 2.25 7 5.38401 7 9.25C7 13.116 10.134 16.25 14 16.25Z" fill="black"/>
<path d="M20.5 39.75H7.5C3.5 39.75 1 36.25 1 34.25V26.75C1 24.25 4.5 19.25 7.5 19.25C10.5 19.25 11.5 29.25 14 29.25C16.5 29.25 17.5 19.25 20 19.25C22.5 19.25 27 24.25 27 26.75V34.25C27 36.25 23.7692 39.75 20.5 39.75Z" stroke="black" stroke-width="1.5"/>
</svg>
