<svg width="91" height="89" viewBox="0 0 91 89" fill="none" xmlns="http://www.w3.org/2000/svg">
<rect x="0.5" y="0.5" width="90" height="88" rx="19.5" fill="white" stroke="#CFCFCF"/>
<path d="M26.2666 84.7794V52.0181C28.4359 51.2738 29.436 51.4978 30.9129 52.9116V83.8859C29.4355 84.8682 28.4149 85.0415 26.2666 84.7794Z" fill="#1B1B1B"/>
<path d="M64.7646 51.7106L64.7646 84.4719C62.5953 85.2162 61.5952 84.9922 60.1183 83.5784L60.1183 52.6041C61.5957 51.6218 62.6163 51.4485 64.7646 51.7106Z" fill="#1B1B1B"/>
<path d="M11.9079 49.2707C10.869 42.6131 10.537 38.6185 11.9078 31.6279L13.5675 32.2937C12.1894 37.6202 12.8602 47.2734 13.5675 48.5495C13.6965 48.7822 12.5717 49.0488 11.9079 49.2707Z" fill="#686868"/>
<path d="M79.5016 31.6279L78.0398 32.2937C79.3172 36.9433 79.2002 40.5011 78.0398 47.9392L80.0863 48.9379C80.9558 39.3124 81.0037 35.0577 79.5016 31.6279Z" fill="#686868"/>
<path d="M11 48.938L13.8025 47.6064C14.5529 51.3272 15.083 53.0615 16.9554 56.5943L17.3057 77.233H14.8535L11 48.938Z" fill="#414141"/>
<path d="M81.0267 48.6051L77.7079 46.9407L74.7209 55.5956V75.2357L76.3803 75.9015L81.0267 48.6051Z" fill="#414141"/>
<path d="M18.3013 51.6008L16.3101 53.5981V81.2274L18.3013 82.8918H22.2839L21.952 51.6008H18.3013Z" fill="#5A5A5A"/>
<path d="M72.7295 82.9254L74.7381 80.9456L74.9785 53.3174L73.0017 51.6356L69.0193 51.6008L69.079 82.8935L72.7295 82.9254Z" fill="#5A5A5A"/>
<path d="M21.6201 48.272V87.2193H26.2664V50.2693L25.2708 48.272H21.6201Z" fill="#3D3D3D"/>
<path d="M69.411 48.272V87.2193L64.7646 87.8851V50.2693L66.0922 48.272H69.411Z" fill="#3D3D3D"/>
<path d="M11 31.9607L16.0037 20.9756L20.2927 23.3058C18.1482 26.4127 13.8593 32.6931 13.8593 32.9594C13.8593 33.2257 11.9531 32.4046 11 31.9607Z" fill="#3F3F3F"/>
<path d="M80.695 32.2936L75.7168 20.9756L71.4023 23.3058L77.7081 33.2923L80.695 32.2936Z" fill="#3F3F3F"/>
<path d="M19.2114 24.6738C17.7973 23.7699 15.9311 22.5443 14.7865 21.6971C14.2578 21.3058 14.1905 20.5828 14.5858 20.0571C22.7576 9.19138 28.6214 3.97166 46.4235 3C63.5739 4.27732 68.893 9.8432 76.6219 19.6977C77.1387 20.3566 76.9221 21.3258 76.1735 21.7012L71.3955 24.0974C70.7847 24.4038 70.0416 24.1934 69.666 23.6225C64.6222 15.9565 59.44 12.2794 46.7553 11.3221C32.9261 11.3221 27.9393 15.8409 20.9479 24.3894C20.5228 24.9093 19.7772 25.0355 19.2114 24.6738Z" fill="#191919"/>
</svg>
