<svg width="36" height="24" viewBox="0 0 36 24" fill="none" xmlns="http://www.w3.org/2000/svg">
<path d="M7.84814 23.122V13.8592C8.96339 13.6488 9.47753 13.7121 10.2368 14.1118V22.8693C9.47726 23.147 8.95259 23.1961 7.84814 23.122Z" fill="#3C2553"/>
<path d="M27.6404 13.7723L27.6404 23.0351C26.5251 23.2455 26.011 23.1822 25.2517 22.7825L25.2517 14.025C26.0113 13.7472 26.5359 13.6982 27.6404 13.7723Z" fill="#3C2553"/>
<path d="M0.466758 13.0825C-0.0673229 11.2001 -0.238003 10.0707 0.466703 8.09424L1.31992 8.28247C0.611447 9.78845 0.956338 12.5178 1.31995 12.8786C1.38627 12.9444 0.807993 13.0197 0.466758 13.0825Z" fill="#3C2553"/>
<path d="M35.2166 8.09424L34.4651 8.28247C35.1218 9.59709 35.0617 10.603 34.4651 12.706L35.5172 12.9884C35.9642 10.2669 35.9888 9.06396 35.2166 8.09424Z" fill="#3C2553"/>
<path d="M0 12.9883L1.44077 12.6118C1.82652 13.6638 2.09904 14.1541 3.06164 15.153L3.24174 20.9883H1.98106L0 12.9883Z" fill="#3C2553"/>
<path d="M36.0003 12.8942L34.2941 12.4236L32.7585 14.8706V20.4236L33.6116 20.6118L36.0003 12.8942Z" fill="#3C2553"/>
<path d="M3.75369 13.7412L2.72998 14.3059V22.1177L3.75369 22.5883H5.8011L5.63048 13.7412H3.75369Z" fill="#3C2553"/>
<path d="M31.7349 22.5979L32.7675 22.0381L32.8911 14.2266L31.8748 13.7511L29.8275 13.7413L29.8582 22.5888L31.7349 22.5979Z" fill="#3C2553"/>
<path d="M5.45972 12.8V23.8118H7.84837V13.3648L7.33651 12.8H5.45972Z" fill="#3C2553"/>
<path d="M30.029 12.8V23.8118L27.6404 24.0001V13.3648L28.3229 12.8H30.029Z" fill="#3C2553"/>
<path d="M0 8.18825L3.00003 5L4.7773 5.74119C3.67484 6.61962 1.46994 8.39531 1.46994 8.4706C1.46994 8.5459 0.489979 8.31374 0 8.18825Z" fill="#3C2553"/>
<path d="M35.7775 8.2L32.0003 4.5L31.0002 6L34.242 8.48235L35.7775 8.2Z" fill="#3C2553"/>
<path d="M18.3819 2.35294C11.4836 2.35294 8.86504 3.55576 5.43225 5.83511C4.99004 6.12874 4.4251 6.20066 3.92487 6.02308C2.76905 5.61277 2.60934 4.24329 3.637 3.5738C7.05996 1.34383 10.4003 0.234469 18.2113 0C25.4502 0.296508 28.5891 1.41037 31.6798 3.34157C32.7312 3.99853 32.4524 5.57797 31.2573 5.9076C30.7818 6.03875 30.2749 5.91841 29.8903 5.60958C27.378 3.59218 24.6772 2.61424 18.3819 2.35294Z" fill="#3C2553"/>
</svg>
