<svg width="36" height="36" viewBox="0 0 36 36" fill="none" xmlns="http://www.w3.org/2000/svg">
<rect x="4.40747" y="4.43213" width="25.4709" height="27.1358" stroke="#3C2553" stroke-width="2"/>
<rect x="9.46045" y="-2" width="1.39682" height="5.4321" fill="#3C2553"/>
<rect x="11.7886" y="-2" width="1.39682" height="5.4321" fill="#3C2553"/>
<rect x="14.1165" y="-2" width="1.39682" height="5.4321" fill="#3C2553"/>
<rect x="16.4446" y="-2" width="1.39682" height="5.4321" fill="#3C2553"/>
<rect x="18.7725" y="-2" width="1.39682" height="5.4321" fill="#3C2553"/>
<rect x="21.5662" y="-2" width="1.39682" height="5.4321" fill="#3C2553"/>
<rect x="23.8943" y="-2" width="1.39682" height="5.4321" fill="#3C2553"/>
<rect x="36" y="9.85181" width="1.48148" height="5.12169" transform="rotate(90 36 9.85181)" fill="#3C2553"/>
<rect x="36" y="12.321" width="1.48148" height="5.12169" transform="rotate(90 36 12.321)" fill="#3C2553"/>
<rect x="36" y="14.79" width="1.48148" height="5.12169" transform="rotate(90 36 14.79)" fill="#3C2553"/>
<rect x="36" y="17.2593" width="1.48148" height="5.12169" transform="rotate(90 36 17.2593)" fill="#3C2553"/>
<rect x="36" y="19.7283" width="1.48148" height="5.12169" transform="rotate(90 36 19.7283)" fill="#3C2553"/>
<rect x="36" y="22.6912" width="1.48148" height="5.12169" transform="rotate(90 36 22.6912)" fill="#3C2553"/>
<rect x="36" y="25.1604" width="1.48148" height="5.12169" transform="rotate(90 36 25.1604)" fill="#3C2553"/>
<rect x="9.46045" y="32.5679" width="1.39682" height="5.4321" fill="#3C2553"/>
<rect x="11.7886" y="32.5679" width="1.39682" height="5.4321" fill="#3C2553"/>
<rect x="14.1165" y="32.5679" width="1.39682" height="5.4321" fill="#3C2553"/>
<rect x="16.4446" y="32.5679" width="1.39682" height="5.4321" fill="#3C2553"/>
<rect x="18.7725" y="32.5679" width="1.39682" height="5.4321" fill="#3C2553"/>
<rect x="21.5662" y="32.5679" width="1.39682" height="5.4321" fill="#3C2553"/>
<rect x="23.8943" y="32.5679" width="1.39682" height="5.4321" fill="#3C2553"/>
<rect x="5.12183" y="9.57886" width="1.48148" height="5.12169" transform="rotate(90 5.12183 9.57886)" fill="#3C2553"/>
<rect x="5.12183" y="12.0481" width="1.48148" height="5.12169" transform="rotate(90 5.12183 12.0481)" fill="#3C2553"/>
<rect x="5.12183" y="14.5171" width="1.48148" height="5.12169" transform="rotate(90 5.12183 14.5171)" fill="#3C2553"/>
<rect x="5.12183" y="16.9863" width="1.48148" height="5.12169" transform="rotate(90 5.12183 16.9863)" fill="#3C2553"/>
<rect x="5.12183" y="19.4553" width="1.48148" height="5.12169" transform="rotate(90 5.12183 19.4553)" fill="#3C2553"/>
<rect x="5.12183" y="22.4185" width="1.48148" height="5.12169" transform="rotate(90 5.12183 22.4185)" fill="#3C2553"/>
<rect x="5.12183" y="24.8875" width="1.48148" height="5.12169" transform="rotate(90 5.12183 24.8875)" fill="#3C2553"/>
</svg>
