<svg width="728" height="315" viewBox="0 0 728 315" fill="none" xmlns="http://www.w3.org/2000/svg">
<path d="M0 0H728V315H0V0Z" fill="url(#paint0_linear_627_209)"/>
<rect x="381" y="191" width="186.581" height="61.2715" fill="#4C83E8"/>
<rect x="384.731" y="196.106" width="179.118" height="51.0596" fill="black"/>
<rect x="388.463" y="199.509" width="10.9567" height="8.85033" fill="#5BA0EE"/>
<rect x="403.072" y="199.509" width="10.9567" height="8.85033" fill="#5BA0EE"/>
<rect x="417.68" y="199.509" width="10.9567" height="8.85033" fill="#5BA0EE"/>
<rect x="432.289" y="199.509" width="10.9567" height="8.85033" fill="#5BA0EE"/>
<rect x="446.898" y="199.509" width="10.9567" height="8.85033" fill="#5BA0EE"/>
<rect x="461.507" y="199.509" width="10.9567" height="8.85033" fill="#5BA0EE"/>
<rect x="490.725" y="199.509" width="10.9567" height="8.85033" fill="#5BA0EE"/>
<rect x="505.333" y="199.509" width="10.9567" height="8.85033" fill="#5BA0EE"/>
<rect x="519.943" y="199.509" width="10.9567" height="8.85033" fill="#5BA0EE"/>
<rect x="534.552" y="199.509" width="10.9567" height="8.85033" fill="#5BA0EE"/>
<rect x="549.16" y="199.509" width="10.9567" height="8.85033" fill="#5BA0EE"/>
<rect x="476.117" y="199.509" width="10.9567" height="8.85033" fill="#5BA0EE"/>
<rect x="388.463" y="234.911" width="10.9567" height="8.85033" fill="#5BA0EE"/>
<rect x="403.072" y="234.911" width="10.9567" height="8.85033" fill="#5BA0EE"/>
<rect x="417.68" y="234.911" width="10.9567" height="8.85033" fill="#5BA0EE"/>
<rect x="432.289" y="234.911" width="10.9567" height="8.85033" fill="#5BA0EE"/>
<rect x="505.333" y="234.911" width="10.9567" height="8.85033" fill="#5BA0EE"/>
<rect x="519.943" y="234.911" width="10.9567" height="8.85033" fill="#5BA0EE"/>
<rect x="534.552" y="234.911" width="10.9567" height="8.85033" fill="#5BA0EE"/>
<rect x="549.16" y="234.911" width="10.9567" height="8.85033" fill="#5BA0EE"/>
<rect x="446.899" y="234.911" width="54.7834" height="8.85033" fill="#5BA0EE"/>
<rect x="388.463" y="211.31" width="10.9567" height="8.85033" fill="#5BA0EE"/>
<rect x="403.072" y="211.31" width="10.9567" height="8.85033" fill="#5BA0EE"/>
<rect x="417.68" y="211.31" width="10.9567" height="8.85033" fill="#5BA0EE"/>
<rect x="432.289" y="211.31" width="10.9567" height="8.85033" fill="#5BA0EE"/>
<rect x="446.898" y="211.31" width="10.9567" height="8.85033" fill="#5BA0EE"/>
<rect x="461.507" y="211.31" width="10.9567" height="8.85033" fill="#5BA0EE"/>
<rect x="490.725" y="211.31" width="10.9567" height="8.85033" fill="#5BA0EE"/>
<rect x="505.333" y="211.31" width="10.9567" height="8.85033" fill="#5BA0EE"/>
<rect x="519.943" y="211.31" width="10.9567" height="8.85033" fill="#5BA0EE"/>
<rect x="534.552" y="211.31" width="10.9567" height="8.85033" fill="#5BA0EE"/>
<rect x="476.117" y="211.31" width="10.9567" height="8.85033" fill="#5BA0EE"/>
<rect x="388.463" y="223.11" width="10.9567" height="8.85033" fill="#5BA0EE"/>
<rect x="403.072" y="223.11" width="10.9567" height="8.85033" fill="#5BA0EE"/>
<rect x="417.68" y="223.11" width="10.9567" height="8.85033" fill="#5BA0EE"/>
<rect x="432.289" y="223.11" width="10.9567" height="8.85033" fill="#5BA0EE"/>
<rect x="446.898" y="223.11" width="10.9567" height="8.85033" fill="#5BA0EE"/>
<rect x="461.507" y="223.11" width="10.9567" height="8.85033" fill="#5BA0EE"/>
<rect x="490.725" y="223.11" width="10.9567" height="8.85033" fill="#5BA0EE"/>
<rect x="505.333" y="223.11" width="10.9567" height="8.85033" fill="#5BA0EE"/>
<rect x="519.943" y="223.11" width="10.9567" height="8.85033" fill="#5BA0EE"/>
<rect x="476.117" y="223.11" width="10.9567" height="8.85033" fill="#5BA0EE"/>
<path d="M560.117 211.423H548.922V223.337H533.996V231.847H560.117V211.423Z" fill="#5BA0EE"/>
<path d="M530.571 121.752C530.571 154.445 515.151 167.446 489.979 167.446C464.808 167.446 450.099 152.887 450.099 120.195C450.099 87.5023 464.808 61 489.979 61C515.151 61 530.571 89.06 530.571 121.752Z" fill="#B6BFE6"/>
<path d="M489.979 122.736L494.603 133.112L494.652 133.224H494.775L509.537 133.224L497.651 139.521L497.495 139.604L497.567 139.765L502.141 150.028L490.067 143.632L489.979 143.586L489.89 143.632L477.816 150.028L482.39 139.765L482.462 139.604L482.306 139.521L470.42 133.224L485.182 133.224H485.305L485.354 133.112L489.979 122.736Z" fill="#5BA0EE" stroke="black" stroke-width="0.377826"/>
<path d="M493.98 107.413H530.629C525.282 82.466 517.153 63.3703 493.98 61V107.413Z" fill="#B6BFE6" stroke="black" stroke-width="0.113348"/>
<path d="M484.817 107.413H450C455.239 82.466 462.115 63.3703 484.817 61V107.413Z" fill="#B6BFE6" stroke="black" stroke-width="0.113348"/>
<path d="M482.858 72.943C482.858 70.0753 486.047 67.7505 489.98 67.7505C493.913 67.7505 497.101 70.0753 497.101 72.943V88.5205C497.101 91.3882 493.913 93.713 489.98 93.713C486.047 93.713 482.858 91.3882 482.858 88.5205V72.943Z" fill="#5BA0EE"/>
<path d="M81.3954 66V52.2849L82.2341 53.1237H76.34V50.1313H90.1005V53.1237H84.2064L85.0225 52.2849V66H81.3954ZM96.8567 66.1814C95.4663 66.1814 94.2422 65.9093 93.1843 65.3653C92.1415 64.8212 91.3329 64.0806 90.7586 63.1436C90.1843 62.1915 89.8972 61.1109 89.8972 59.9019C89.8972 58.6777 90.1768 57.5971 90.7359 56.6601C91.3102 55.708 92.0886 54.9675 93.0709 54.4385C94.0533 53.8944 95.1641 53.6224 96.4033 53.6224C97.5973 53.6224 98.6703 53.8793 99.6224 54.3932C100.59 54.8919 101.353 55.6173 101.912 56.5695C102.471 57.5065 102.751 58.6324 102.751 59.9472C102.751 60.0832 102.743 60.2419 102.728 60.4233C102.713 60.5895 102.698 60.7482 102.683 60.8993H92.7762V58.8364H100.824L99.4637 59.4485C99.4637 58.8137 99.3353 58.2621 99.0783 57.7936C98.8214 57.3251 98.4663 56.9624 98.0129 56.7055C97.5595 56.4334 97.0305 56.2974 96.426 56.2974C95.8215 56.2974 95.285 56.4334 94.8165 56.7055C94.3631 56.9624 94.0079 57.3327 93.751 57.8163C93.4941 58.2848 93.3656 58.844 93.3656 59.4938V60.0379C93.3656 60.7029 93.5092 61.2923 93.7963 61.8061C94.0986 62.3049 94.5142 62.6902 95.0432 62.9623C95.5872 63.2192 96.222 63.3477 96.9474 63.3477C97.5973 63.3477 98.164 63.2494 98.6476 63.053C99.1464 62.8565 99.5997 62.5618 100.008 62.1688L101.889 64.2091C101.33 64.8439 100.627 65.335 99.7811 65.6826C98.9348 66.0151 97.96 66.1814 96.8567 66.1814ZM111.514 66.272C110.517 66.272 109.61 66.1285 108.794 65.8413C107.978 65.5391 107.268 65.0781 106.663 64.4585C106.074 63.8237 105.613 63.0152 105.28 62.0328C104.963 61.0505 104.804 59.8792 104.804 58.519C104.804 57.5518 104.887 56.6677 105.054 55.8667C105.22 55.0657 105.469 54.3403 105.802 53.6904C106.134 53.0254 106.557 52.4436 107.071 51.9449C107.6 51.431 108.212 51.0078 108.907 50.6754C109.618 50.3278 110.419 50.0633 111.31 49.8819L117.114 48.7258L117.59 51.7635L112.467 52.7836C112.164 52.8441 111.817 52.9272 111.424 53.033C111.046 53.1237 110.66 53.2673 110.268 53.4637C109.89 53.6602 109.535 53.9398 109.202 54.3025C108.885 54.6501 108.628 55.111 108.431 55.6853C108.235 56.2445 108.137 56.9397 108.137 57.7709C108.137 58.0279 108.144 58.2243 108.159 58.3604C108.19 58.4964 108.212 58.6399 108.227 58.7911C108.258 58.9422 108.273 59.1765 108.273 59.4938L107.139 58.383C107.472 57.6727 107.895 57.0682 108.409 56.5695C108.938 56.0707 109.542 55.6929 110.222 55.436C110.917 55.1639 111.688 55.0279 112.535 55.0279C113.683 55.0279 114.688 55.2622 115.55 55.7307C116.426 56.1841 117.106 56.8264 117.59 57.6576C118.073 58.4888 118.315 59.4334 118.315 60.4913C118.315 61.6399 118.028 62.6525 117.454 63.529C116.88 64.3905 116.079 65.063 115.051 65.5466C114.038 66.0302 112.859 66.272 111.514 66.272ZM111.696 63.529C112.285 63.529 112.807 63.4006 113.26 63.1436C113.713 62.8716 114.061 62.5164 114.303 62.0782C114.56 61.6248 114.688 61.1185 114.688 60.5593C114.688 60.0152 114.56 59.5316 114.303 59.1084C114.061 58.6853 113.713 58.3528 113.26 58.111C112.807 57.8692 112.278 57.7483 111.673 57.7483C111.084 57.7483 110.555 57.8692 110.086 58.111C109.618 58.3377 109.255 58.6551 108.998 59.0631C108.741 59.4712 108.613 59.9472 108.613 60.4913C108.613 61.0505 108.741 61.5643 108.998 62.0328C109.27 62.4862 109.633 62.8489 110.086 63.121C110.555 63.393 111.091 63.529 111.696 63.529ZM128.024 66V61.9421L128.522 62.5089H125.144C123.391 62.5089 122.016 62.1462 121.019 61.4207C120.021 60.6953 119.522 59.6525 119.522 58.2923C119.522 56.8415 120.044 55.7307 121.087 54.9599C122.145 54.1891 123.565 53.8038 125.348 53.8038H131.175V66H128.024ZM119.341 66L122.583 61.3527H126.187L123.104 66H119.341ZM128.024 60.854V55.776L128.522 56.6828H125.416C124.691 56.6828 124.124 56.8188 123.716 57.0909C123.323 57.3629 123.127 57.8012 123.127 58.4057C123.127 59.5694 123.875 60.1512 125.371 60.1512H128.522L128.024 60.854ZM155.661 66L152.419 60.2193L155.275 58.519L159.855 66H155.661ZM150.333 61.3754V58.5417H154.573V61.3754H150.333ZM155.638 60.3099L152.306 59.9472L155.819 53.8038H159.56L155.638 60.3099ZM143.601 66H139.429L143.986 58.519L146.842 60.2193L143.601 66ZM151.376 66H147.885V53.8038H151.376V66ZM148.928 61.3754H144.711V58.5417H148.928V61.3754ZM143.623 60.3099L139.701 53.8038H143.442L146.933 59.9472L143.623 60.3099ZM170.081 64.4131V56.7055H166.091L166.023 58.2697C165.992 58.9195 165.955 59.5392 165.909 60.1286C165.864 60.718 165.773 61.2545 165.637 61.7381C165.516 62.2066 165.335 62.6071 165.093 62.9396C164.851 63.257 164.526 63.4761 164.118 63.597L160.627 63.0983C161.066 63.0983 161.421 62.9698 161.693 62.7129C161.965 62.4409 162.176 62.0706 162.328 61.6021C162.479 61.1185 162.592 60.5744 162.668 59.9699C162.743 59.3503 162.796 58.7004 162.826 58.0203L162.985 53.8038H173.617V64.4131H170.081ZM160.219 68.6297V63.0983H175.363V68.6297H172.075V66H163.506V68.6297H160.219ZM179.243 70.5793C178.608 70.5793 177.981 70.481 177.361 70.2846C176.742 70.0881 176.235 69.816 175.843 69.4684L177.135 66.9521C177.407 67.1939 177.717 67.3828 178.064 67.5189C178.427 67.6549 178.782 67.7229 179.13 67.7229C179.628 67.7229 180.021 67.602 180.308 67.3602C180.611 67.1335 180.883 66.7481 181.125 66.204L181.759 64.7078L182.031 64.3225L186.407 53.8038H189.807L184.298 66.7481C183.905 67.7304 183.452 68.5012 182.938 69.0604C182.439 69.6196 181.88 70.0125 181.261 70.2392C180.656 70.4659 179.983 70.5793 179.243 70.5793ZM181.329 66.4761L175.888 53.8038H179.538L183.754 64.0051L181.329 66.4761ZM194.186 66V55.8894L194.98 56.7055H190.061V53.8038H201.826V56.7055H196.907L197.7 55.8894V66H194.186ZM210.131 66V53.8038H213.645V58.5644H218.95V53.8038H222.486V66H218.95V61.4434H213.645V66H210.131ZM231.584 66.1814C230.285 66.1814 229.128 65.9093 228.116 65.3653C227.118 64.8212 226.325 64.0806 225.736 63.1436C225.161 62.1915 224.874 61.1109 224.874 59.9019C224.874 58.6777 225.161 57.5971 225.736 56.6601C226.325 55.708 227.118 54.9675 228.116 54.4385C229.128 53.8944 230.285 53.6224 231.584 53.6224C232.869 53.6224 234.018 53.8944 235.03 54.4385C236.043 54.9675 236.836 55.7005 237.41 56.6375C237.985 57.5745 238.272 58.6626 238.272 59.9019C238.272 61.1109 237.985 62.1915 237.41 63.1436C236.836 64.0806 236.043 64.8212 235.03 65.3653C234.018 65.9093 232.869 66.1814 231.584 66.1814ZM231.584 63.2797C232.174 63.2797 232.703 63.1436 233.171 62.8716C233.64 62.5996 234.01 62.2142 234.282 61.7154C234.554 61.2016 234.69 60.5971 234.69 59.9019C234.69 59.1916 234.554 58.587 234.282 58.0883C234.01 57.5896 233.64 57.2042 233.171 56.9322C232.703 56.6601 232.174 56.5241 231.584 56.5241C230.995 56.5241 230.466 56.6601 229.997 56.9322C229.529 57.2042 229.151 57.5896 228.864 58.0883C228.592 58.587 228.456 59.1916 228.456 59.9019C228.456 60.5971 228.592 61.2016 228.864 61.7154C229.151 62.2142 229.529 62.5996 229.997 62.8716C230.466 63.1436 230.995 63.2797 231.584 63.2797ZM240.704 66V53.8038H246.938C248.465 53.8038 249.659 54.0834 250.52 54.6425C251.382 55.1866 251.812 55.9574 251.812 56.9548C251.812 57.9523 251.404 58.7382 250.588 59.3125C249.787 59.8717 248.722 60.1512 247.392 60.1512L247.754 59.3351C249.236 59.3351 250.339 59.6072 251.064 60.1512C251.805 60.6953 252.175 61.4888 252.175 62.5316C252.175 63.6046 251.767 64.4509 250.951 65.0705C250.135 65.6902 248.888 66 247.21 66H240.704ZM243.946 63.597H246.916C247.566 63.597 248.049 63.4912 248.367 63.2797C248.699 63.053 248.865 62.7129 248.865 62.2595C248.865 61.791 248.714 61.451 248.412 61.2394C248.11 61.0127 247.634 60.8993 246.984 60.8993H243.946V63.597ZM243.946 58.8137H246.621C247.241 58.8137 247.702 58.7004 248.004 58.4737C248.321 58.247 248.48 57.9221 248.48 57.4989C248.48 57.0606 248.321 56.7357 248.004 56.5241C247.702 56.3125 247.241 56.2067 246.621 56.2067H243.946V58.8137ZM267.365 66V53.8038H270.879V66H267.365ZM261.222 57.7029C262.824 57.718 264.025 58.0808 264.826 58.7911C265.642 59.4863 266.05 60.4762 266.05 61.7608C266.05 63.1059 265.589 64.1562 264.668 64.9119C263.746 65.6524 262.438 66.0227 260.746 66.0227L254.806 66V53.8038H258.32V57.7029H261.222ZM260.428 63.5063C261.108 63.5215 261.63 63.3779 261.993 63.0756C262.355 62.7734 262.537 62.32 262.537 61.7154C262.537 61.1109 262.355 60.6802 261.993 60.4233C261.63 60.1512 261.108 60.0077 260.428 59.9926L258.32 59.9699V63.5063H260.428ZM280.25 66.1814C278.86 66.1814 277.636 65.9093 276.578 65.3653C275.535 64.8212 274.726 64.0806 274.152 63.1436C273.578 62.1915 273.291 61.1109 273.291 59.9019C273.291 58.6777 273.57 57.5971 274.129 56.6601C274.704 55.708 275.482 54.9675 276.464 54.4385C277.447 53.8944 278.557 53.6224 279.797 53.6224C280.991 53.6224 282.064 53.8793 283.016 54.3932C283.983 54.8919 284.746 55.6173 285.305 56.5695C285.865 57.5065 286.144 58.6324 286.144 59.9472C286.144 60.0832 286.137 60.2419 286.122 60.4233C286.106 60.5895 286.091 60.7482 286.076 60.8993H276.17V58.8364H284.217L282.857 59.4485C282.857 58.8137 282.729 58.2621 282.472 57.7936C282.215 57.3251 281.86 56.9624 281.406 56.7055C280.953 56.4334 280.424 56.2974 279.819 56.2974C279.215 56.2974 278.678 56.4334 278.21 56.7055C277.756 56.9624 277.401 57.3327 277.144 57.8163C276.887 58.2848 276.759 58.844 276.759 59.4938V60.0379C276.759 60.7029 276.903 61.2923 277.19 61.8061C277.492 62.3049 277.908 62.6902 278.437 62.9623C278.981 63.2192 279.615 63.3477 280.341 63.3477C280.991 63.3477 281.557 63.2494 282.041 63.053C282.54 62.8565 282.993 62.5618 283.401 62.1688L285.283 64.2091C284.724 64.8439 284.021 65.335 283.174 65.6826C282.328 66.0151 281.353 66.1814 280.25 66.1814ZM295.275 66V53.8038H307.403V66H303.867V55.912L304.66 56.7055H297.995L298.789 55.912V66H295.275ZM316.507 66.1814C315.207 66.1814 314.051 65.9093 313.038 65.3653C312.041 64.8212 311.247 64.0806 310.658 63.1436C310.084 62.1915 309.797 61.1109 309.797 59.9019C309.797 58.6777 310.084 57.5971 310.658 56.6601C311.247 55.708 312.041 54.9675 313.038 54.4385C314.051 53.8944 315.207 53.6224 316.507 53.6224C317.791 53.6224 318.94 53.8944 319.952 54.4385C320.965 54.9675 321.759 55.7005 322.333 56.6375C322.907 57.5745 323.194 58.6626 323.194 59.9019C323.194 61.1109 322.907 62.1915 322.333 63.1436C321.759 64.0806 320.965 64.8212 319.952 65.3653C318.94 65.9093 317.791 66.1814 316.507 66.1814ZM316.507 63.2797C317.096 63.2797 317.625 63.1436 318.094 62.8716C318.562 62.5996 318.932 62.2142 319.204 61.7154C319.476 61.2016 319.612 60.5971 319.612 59.9019C319.612 59.1916 319.476 58.587 319.204 58.0883C318.932 57.5896 318.562 57.2042 318.094 56.9322C317.625 56.6601 317.096 56.5241 316.507 56.5241C315.917 56.5241 315.388 56.6601 314.92 56.9322C314.451 57.2042 314.074 57.5896 313.786 58.0883C313.514 58.587 313.378 59.1916 313.378 59.9019C313.378 60.5971 313.514 61.2016 313.786 61.7154C314.074 62.2142 314.451 62.5996 314.92 62.8716C315.388 63.1436 315.917 63.2797 316.507 63.2797ZM331.679 66.272C330.682 66.272 329.775 66.1285 328.959 65.8413C328.143 65.5391 327.433 65.0781 326.828 64.4585C326.239 63.8237 325.778 63.0152 325.445 62.0328C325.128 61.0505 324.969 59.8792 324.969 58.519C324.969 57.5518 325.052 56.6677 325.219 55.8667C325.385 55.0657 325.634 54.3403 325.967 53.6904C326.299 53.0254 326.722 52.4436 327.236 51.9449C327.765 51.431 328.377 51.0078 329.072 50.6754C329.783 50.3278 330.584 50.0633 331.475 49.8819L337.279 48.7258L337.755 51.7635L332.632 52.7836C332.329 52.8441 331.982 52.9272 331.589 53.033C331.211 53.1237 330.826 53.2673 330.433 53.4637C330.055 53.6602 329.7 53.9398 329.367 54.3025C329.05 54.6501 328.793 55.111 328.596 55.6853C328.4 56.2445 328.302 56.9397 328.302 57.7709C328.302 58.0279 328.309 58.2243 328.324 58.3604C328.355 58.4964 328.377 58.6399 328.392 58.7911C328.423 58.9422 328.438 59.1765 328.438 59.4938L327.304 58.383C327.637 57.6727 328.06 57.0682 328.574 56.5695C329.103 56.0707 329.707 55.6929 330.387 55.436C331.082 55.1639 331.853 55.0279 332.7 55.0279C333.848 55.0279 334.853 55.2622 335.715 55.7307C336.591 56.1841 337.271 56.8264 337.755 57.6576C338.238 58.4888 338.48 59.4334 338.48 60.4913C338.48 61.6399 338.193 62.6525 337.619 63.529C337.045 64.3905 336.244 65.063 335.216 65.5466C334.203 66.0302 333.024 66.272 331.679 66.272ZM331.861 63.529C332.45 63.529 332.972 63.4006 333.425 63.1436C333.878 62.8716 334.226 62.5164 334.468 62.0782C334.725 61.6248 334.853 61.1185 334.853 60.5593C334.853 60.0152 334.725 59.5316 334.468 59.1084C334.226 58.6853 333.878 58.3528 333.425 58.111C332.972 57.8692 332.443 57.7483 331.838 57.7483C331.249 57.7483 330.72 57.8692 330.251 58.111C329.783 58.3377 329.42 58.6551 329.163 59.0631C328.906 59.4712 328.778 59.9472 328.778 60.4913C328.778 61.0505 328.906 61.5643 329.163 62.0328C329.435 62.4862 329.798 62.8489 330.251 63.121C330.72 63.393 331.256 63.529 331.861 63.529ZM346.842 66.1814C345.452 66.1814 344.227 65.9093 343.17 65.3653C342.127 64.8212 341.318 64.0806 340.744 63.1436C340.17 62.1915 339.882 61.1109 339.882 59.9019C339.882 58.6777 340.162 57.5971 340.721 56.6601C341.295 55.708 342.074 54.9675 343.056 54.4385C344.039 53.8944 345.149 53.6224 346.389 53.6224C347.583 53.6224 348.656 53.8793 349.608 54.3932C350.575 54.8919 351.338 55.6173 351.897 56.5695C352.456 57.5065 352.736 58.6324 352.736 59.9472C352.736 60.0832 352.729 60.2419 352.713 60.4233C352.698 60.5895 352.683 60.7482 352.668 60.8993H342.761V58.8364H350.809L349.449 59.4485C349.449 58.8137 349.321 58.2621 349.064 57.7936C348.807 57.3251 348.452 56.9624 347.998 56.7055C347.545 56.4334 347.016 56.2974 346.411 56.2974C345.807 56.2974 345.27 56.4334 344.802 56.7055C344.348 56.9624 343.993 57.3327 343.736 57.8163C343.479 58.2848 343.351 58.844 343.351 59.4938V60.0379C343.351 60.7029 343.494 61.2923 343.782 61.8061C344.084 62.3049 344.499 62.6902 345.028 62.9623C345.572 63.2192 346.207 63.3477 346.933 63.3477C347.583 63.3477 348.149 63.2494 348.633 63.053C349.132 62.8565 349.585 62.5618 349.993 62.1688L351.875 64.2091C351.315 64.8439 350.613 65.335 349.766 65.6826C348.92 66.0151 347.945 66.1814 346.842 66.1814ZM363.724 64.4131V56.7055H359.734L359.666 58.2697C359.636 58.9195 359.598 59.5392 359.553 60.1286C359.507 60.718 359.417 61.2545 359.281 61.7381C359.16 62.2066 358.978 62.6071 358.737 62.9396C358.495 63.257 358.17 63.4761 357.762 63.597L354.271 63.0983C354.709 63.0983 355.064 62.9698 355.336 62.7129C355.608 62.4409 355.82 62.0706 355.971 61.6021C356.122 61.1185 356.235 60.5744 356.311 59.9699C356.387 59.3503 356.439 58.7004 356.47 58.0203L356.628 53.8038H367.26V64.4131H363.724ZM353.863 68.6297V63.0983H369.006V68.6297H365.719V66H357.15V68.6297H353.863ZM383.79 66V53.8038H387.304V66H383.79ZM377.647 57.7029C379.249 57.718 380.45 58.0808 381.251 58.7911C382.067 59.4863 382.476 60.4762 382.476 61.7608C382.476 63.1059 382.015 64.1562 381.093 64.9119C380.171 65.6524 378.864 66.0227 377.171 66.0227L371.231 66V53.8038H374.745V57.7029H377.647ZM376.853 63.5063C377.534 63.5215 378.055 63.3779 378.418 63.0756C378.78 62.7734 378.962 62.32 378.962 61.7154C378.962 61.1109 378.78 60.6802 378.418 60.4233C378.055 60.1512 377.534 60.0077 376.853 59.9926L374.745 59.9699V63.5063H376.853Z" fill="white"/>
<path d="M100.569 117.421H103.017V128H100.569V117.421ZM95.7632 128H93.3148V117.421H95.7632V128ZM100.75 123.663H95.5818V121.592H100.75V123.663ZM109.295 128.121C108.429 128.121 107.658 127.94 106.983 127.577C106.318 127.214 105.789 126.72 105.396 126.096C105.013 125.461 104.822 124.741 104.822 123.935C104.822 123.118 105.013 122.398 105.396 121.773C105.789 121.139 106.318 120.645 106.983 120.292C107.658 119.93 108.429 119.748 109.295 119.748C110.152 119.748 110.917 119.93 111.592 120.292C112.267 120.645 112.796 121.134 113.179 121.758C113.562 122.383 113.753 123.108 113.753 123.935C113.753 124.741 113.562 125.461 113.179 126.096C112.796 126.72 112.267 127.214 111.592 127.577C110.917 127.94 110.152 128.121 109.295 128.121ZM109.295 126.186C109.688 126.186 110.041 126.096 110.353 125.914C110.665 125.733 110.912 125.476 111.094 125.144C111.275 124.801 111.366 124.398 111.366 123.935C111.366 123.461 111.275 123.058 111.094 122.726C110.912 122.393 110.665 122.136 110.353 121.955C110.041 121.773 109.688 121.683 109.295 121.683C108.902 121.683 108.55 121.773 108.237 121.955C107.925 122.136 107.673 122.393 107.482 122.726C107.3 123.058 107.21 123.461 107.21 123.935C107.21 124.398 107.3 124.801 107.482 125.144C107.673 125.476 107.925 125.733 108.237 125.914C108.55 126.096 108.902 126.186 109.295 126.186ZM115.375 128V119.869H119.531C120.549 119.869 121.345 120.056 121.919 120.428C122.493 120.791 122.78 121.305 122.78 121.97C122.78 122.635 122.508 123.159 121.964 123.542C121.43 123.914 120.72 124.101 119.833 124.101L120.075 123.557C121.063 123.557 121.798 123.738 122.282 124.101C122.775 124.464 123.022 124.993 123.022 125.688C123.022 126.403 122.75 126.967 122.206 127.38C121.662 127.793 120.831 128 119.712 128H115.375ZM117.536 126.398H119.516C119.949 126.398 120.272 126.327 120.483 126.186C120.705 126.035 120.816 125.809 120.816 125.506C120.816 125.194 120.715 124.967 120.513 124.826C120.312 124.675 119.995 124.6 119.561 124.6H117.536V126.398ZM117.536 123.209H119.32C119.733 123.209 120.04 123.134 120.241 122.982C120.453 122.831 120.559 122.615 120.559 122.333C120.559 122.04 120.453 121.824 120.241 121.683C120.04 121.542 119.733 121.471 119.32 121.471H117.536V123.209ZM124.776 128V119.869H127.119V124.705L131.079 119.869H133.24V128H130.897V123.164L126.953 128H124.776ZM135.506 128V119.869H137.849V123.043H141.385V119.869H143.743V128H141.385V124.962H137.849V128H135.506ZM151.758 128L149.037 124.146L150.957 123.013L154.539 128H151.758ZM146 128V119.869H148.357V128H146ZM147.662 124.917V123.028H150.503V124.917H147.662ZM151.183 124.207L148.977 123.965L151.833 119.869H154.342L151.183 124.207ZM155.696 128V119.869H158.039V124.705L161.998 119.869H164.16V128H161.817V123.164L157.872 128H155.696ZM174.514 128.121C173.648 128.121 172.877 127.94 172.202 127.577C171.537 127.214 171.008 126.72 170.615 126.096C170.232 125.461 170.041 124.741 170.041 123.935C170.041 123.118 170.232 122.398 170.615 121.773C171.008 121.139 171.537 120.645 172.202 120.292C172.877 119.93 173.648 119.748 174.514 119.748C175.371 119.748 176.137 119.93 176.812 120.292C177.487 120.645 178.016 121.134 178.398 121.758C178.781 122.383 178.973 123.108 178.973 123.935C178.973 124.741 178.781 125.461 178.398 126.096C178.016 126.72 177.487 127.214 176.812 127.577C176.137 127.94 175.371 128.121 174.514 128.121ZM174.514 126.186C174.907 126.186 175.26 126.096 175.572 125.914C175.885 125.733 176.132 125.476 176.313 125.144C176.494 124.801 176.585 124.398 176.585 123.935C176.585 123.461 176.494 123.058 176.313 122.726C176.132 122.393 175.885 122.136 175.572 121.955C175.26 121.773 174.907 121.683 174.514 121.683C174.122 121.683 173.769 121.773 173.457 121.955C173.144 122.136 172.892 122.393 172.701 122.726C172.52 123.058 172.429 123.461 172.429 123.935C172.429 124.398 172.52 124.801 172.701 125.144C172.892 125.476 173.144 125.733 173.457 125.914C173.769 126.096 174.122 126.186 174.514 126.186ZM182.037 128V121.26L182.566 121.804H179.287V119.869H187.13V121.804H183.851L184.38 121.26V128H182.037ZM196.264 128.181C195.418 128.181 194.607 128.071 193.831 127.849C193.055 127.617 192.43 127.32 191.957 126.957L192.788 125.113C193.241 125.436 193.775 125.703 194.39 125.914C195.015 126.116 195.644 126.217 196.279 126.217C196.763 126.217 197.151 126.171 197.443 126.081C197.745 125.98 197.967 125.844 198.108 125.673C198.249 125.501 198.319 125.305 198.319 125.083C198.319 124.801 198.209 124.579 197.987 124.418C197.765 124.247 197.473 124.111 197.11 124.01C196.748 123.899 196.345 123.799 195.901 123.708C195.468 123.607 195.03 123.486 194.586 123.345C194.153 123.204 193.755 123.023 193.393 122.801C193.03 122.579 192.733 122.287 192.501 121.925C192.279 121.562 192.168 121.098 192.168 120.534C192.168 119.93 192.33 119.381 192.652 118.887C192.984 118.383 193.478 117.985 194.133 117.693C194.798 117.391 195.629 117.24 196.627 117.24C197.292 117.24 197.947 117.32 198.591 117.481C199.236 117.632 199.806 117.864 200.299 118.177L199.544 120.035C199.05 119.753 198.556 119.547 198.062 119.416C197.569 119.275 197.085 119.204 196.612 119.204C196.138 119.204 195.75 119.26 195.448 119.37C195.146 119.481 194.929 119.627 194.798 119.809C194.667 119.98 194.602 120.182 194.602 120.413C194.602 120.685 194.712 120.907 194.934 121.078C195.156 121.239 195.448 121.37 195.811 121.471C196.173 121.572 196.571 121.673 197.005 121.773C197.448 121.874 197.886 121.99 198.319 122.121C198.763 122.252 199.166 122.428 199.528 122.65C199.891 122.872 200.183 123.164 200.405 123.527C200.637 123.889 200.753 124.348 200.753 124.902C200.753 125.496 200.586 126.04 200.254 126.534C199.921 127.028 199.423 127.426 198.758 127.728C198.103 128.03 197.272 128.181 196.264 128.181ZM205.69 128.121C205.015 128.121 204.41 127.99 203.876 127.728C203.352 127.466 202.944 127.068 202.652 126.534C202.36 125.99 202.214 125.3 202.214 124.464V119.869H204.572V124.116C204.572 124.791 204.713 125.29 204.995 125.612C205.287 125.924 205.695 126.081 206.219 126.081C206.582 126.081 206.904 126.005 207.186 125.854C207.468 125.693 207.69 125.451 207.851 125.129C208.012 124.796 208.093 124.383 208.093 123.889V119.869H210.451V128H208.214V125.763L208.622 126.413C208.35 126.977 207.947 127.406 207.413 127.698C206.889 127.98 206.315 128.121 205.69 128.121ZM217.441 128.121C216.756 128.121 216.156 127.97 215.642 127.668C215.128 127.365 214.725 126.907 214.433 126.292C214.151 125.668 214.01 124.882 214.01 123.935C214.01 122.977 214.146 122.192 214.418 121.577C214.69 120.962 215.083 120.504 215.597 120.202C216.111 119.899 216.725 119.748 217.441 119.748C218.206 119.748 218.892 119.925 219.496 120.277C220.111 120.62 220.594 121.103 220.947 121.728C221.31 122.353 221.491 123.088 221.491 123.935C221.491 124.791 221.31 125.532 220.947 126.156C220.594 126.781 220.111 127.264 219.496 127.607C218.892 127.95 218.206 128.121 217.441 128.121ZM212.635 130.932V119.869H214.887V121.532L214.841 123.95L214.992 126.353V130.932H212.635ZM217.033 126.186C217.426 126.186 217.773 126.096 218.075 125.914C218.388 125.733 218.635 125.476 218.816 125.144C219.007 124.801 219.103 124.398 219.103 123.935C219.103 123.461 219.007 123.058 218.816 122.726C218.635 122.393 218.388 122.136 218.075 121.955C217.773 121.773 217.426 121.683 217.033 121.683C216.64 121.683 216.287 121.773 215.975 121.955C215.662 122.136 215.416 122.393 215.234 122.726C215.053 123.058 214.962 123.461 214.962 123.935C214.962 124.398 215.053 124.801 215.234 125.144C215.416 125.476 215.662 125.733 215.975 125.914C216.287 126.096 216.64 126.186 217.033 126.186ZM227.104 128.121C226.178 128.121 225.361 127.94 224.656 127.577C223.961 127.214 223.422 126.72 223.039 126.096C222.656 125.461 222.465 124.741 222.465 123.935C222.465 123.118 222.651 122.398 223.024 121.773C223.407 121.139 223.926 120.645 224.581 120.292C225.235 119.93 225.976 119.748 226.802 119.748C227.598 119.748 228.313 119.92 228.948 120.262C229.593 120.595 230.102 121.078 230.475 121.713C230.847 122.338 231.034 123.088 231.034 123.965C231.034 124.055 231.029 124.161 231.019 124.282C231.009 124.393 230.999 124.499 230.989 124.6H224.384V123.224H229.749L228.842 123.632C228.842 123.209 228.757 122.841 228.586 122.529C228.414 122.217 228.177 121.975 227.875 121.804C227.573 121.622 227.22 121.532 226.817 121.532C226.414 121.532 226.057 121.622 225.744 121.804C225.442 121.975 225.205 122.222 225.034 122.544C224.863 122.857 224.777 123.229 224.777 123.663V124.025C224.777 124.469 224.873 124.862 225.064 125.204C225.266 125.537 225.543 125.793 225.895 125.975C226.258 126.146 226.681 126.232 227.165 126.232C227.598 126.232 227.976 126.166 228.298 126.035C228.631 125.904 228.933 125.708 229.205 125.446L230.46 126.806C230.087 127.229 229.618 127.557 229.054 127.788C228.49 128.01 227.84 128.121 227.104 128.121ZM232.603 128V119.869H234.855V122.166L234.538 121.501C234.78 120.927 235.168 120.494 235.702 120.202C236.236 119.899 236.886 119.748 237.651 119.748V121.925C237.55 121.914 237.46 121.909 237.379 121.909C237.299 121.899 237.213 121.894 237.122 121.894C236.477 121.894 235.954 122.081 235.551 122.454C235.158 122.816 234.961 123.385 234.961 124.161V128H232.603ZM241.848 128.121C241.152 128.121 240.482 128.04 239.838 127.879C239.203 127.708 238.699 127.496 238.326 127.244L239.112 125.552C239.485 125.783 239.923 125.975 240.427 126.126C240.941 126.267 241.445 126.338 241.938 126.338C242.482 126.338 242.865 126.272 243.087 126.141C243.319 126.01 243.434 125.829 243.434 125.597C243.434 125.406 243.344 125.265 243.162 125.174C242.991 125.073 242.759 124.998 242.467 124.947C242.175 124.897 241.853 124.846 241.5 124.796C241.157 124.746 240.81 124.68 240.457 124.6C240.105 124.509 239.782 124.378 239.49 124.207C239.198 124.035 238.961 123.804 238.78 123.511C238.608 123.219 238.523 122.841 238.523 122.378C238.523 121.864 238.669 121.411 238.961 121.018C239.263 120.625 239.696 120.318 240.261 120.096C240.825 119.864 241.5 119.748 242.286 119.748C242.84 119.748 243.404 119.809 243.979 119.93C244.553 120.051 245.031 120.227 245.414 120.459L244.628 122.136C244.235 121.904 243.837 121.748 243.434 121.668C243.042 121.577 242.659 121.532 242.286 121.532C241.762 121.532 241.379 121.602 241.137 121.743C240.895 121.884 240.775 122.066 240.775 122.287C240.775 122.489 240.86 122.64 241.031 122.741C241.213 122.841 241.45 122.922 241.742 122.982C242.034 123.043 242.351 123.098 242.694 123.149C243.047 123.189 243.399 123.255 243.752 123.345C244.104 123.436 244.422 123.567 244.704 123.738C244.996 123.899 245.233 124.126 245.414 124.418C245.596 124.7 245.686 125.073 245.686 125.537C245.686 126.04 245.535 126.489 245.233 126.882C244.931 127.264 244.492 127.567 243.918 127.788C243.354 128.01 242.664 128.121 241.848 128.121ZM250.466 128.121C249.509 128.121 248.763 127.879 248.229 127.395C247.695 126.902 247.428 126.171 247.428 125.204V118.071H249.786V125.174C249.786 125.516 249.876 125.783 250.058 125.975C250.239 126.156 250.486 126.247 250.798 126.247C251.171 126.247 251.488 126.146 251.75 125.945L252.385 127.607C252.143 127.778 251.851 127.909 251.509 128C251.176 128.081 250.829 128.121 250.466 128.121ZM246.174 121.864V120.051H251.811V121.864H246.174ZM258.696 128V126.413L258.545 126.066V123.224C258.545 122.721 258.389 122.328 258.076 122.045C257.774 121.763 257.306 121.622 256.671 121.622C256.238 121.622 255.809 121.693 255.386 121.834C254.973 121.965 254.62 122.146 254.328 122.378L253.482 120.731C253.925 120.418 254.459 120.176 255.084 120.005C255.709 119.834 256.343 119.748 256.988 119.748C258.227 119.748 259.19 120.04 259.875 120.625C260.56 121.209 260.902 122.121 260.902 123.36V128H258.696ZM256.217 128.121C255.583 128.121 255.039 128.015 254.585 127.804C254.132 127.582 253.784 127.285 253.542 126.912C253.301 126.539 253.18 126.121 253.18 125.657C253.18 125.174 253.296 124.751 253.527 124.388C253.769 124.025 254.147 123.743 254.661 123.542C255.175 123.33 255.845 123.224 256.671 123.224H258.832V124.6H256.928C256.374 124.6 255.991 124.69 255.779 124.872C255.578 125.053 255.477 125.28 255.477 125.552C255.477 125.854 255.593 126.096 255.824 126.277C256.066 126.448 256.394 126.534 256.807 126.534C257.2 126.534 257.552 126.443 257.865 126.262C258.177 126.071 258.404 125.793 258.545 125.431L258.908 126.519C258.736 127.043 258.424 127.441 257.971 127.713C257.517 127.985 256.933 128.121 256.217 128.121ZM263.036 128V119.869H265.288V122.166L264.971 121.501C265.212 120.927 265.6 120.494 266.134 120.202C266.668 119.899 267.318 119.748 268.084 119.748V121.925C267.983 121.914 267.893 121.909 267.812 121.909C267.731 121.899 267.646 121.894 267.555 121.894C266.91 121.894 266.386 122.081 265.983 122.454C265.59 122.816 265.394 123.385 265.394 124.161V128H263.036Z" fill="white"/>
<ellipse cx="568.325" cy="251.776" rx="18.3247" ry="16.7758" fill="#FD1205"/>
<path d="M559.627 253V247.71H560.64L563.761 251.519H563.269V247.71H564.478V253H563.473L560.345 249.192H560.836V253H559.627ZM567.664 253.06C567.201 253.06 566.793 252.97 566.44 252.788C566.093 252.607 565.823 252.36 565.632 252.048C565.44 251.731 565.345 251.37 565.345 250.967C565.345 250.559 565.438 250.199 565.624 249.887C565.816 249.569 566.075 249.322 566.403 249.146C566.73 248.965 567.1 248.874 567.513 248.874C567.911 248.874 568.269 248.96 568.586 249.131C568.909 249.297 569.163 249.539 569.35 249.856C569.536 250.169 569.629 250.544 569.629 250.982C569.629 251.028 569.627 251.081 569.622 251.141C569.617 251.197 569.612 251.249 569.606 251.3H566.304V250.612H568.987L568.533 250.816C568.533 250.605 568.491 250.421 568.405 250.265C568.319 250.108 568.201 249.987 568.05 249.902C567.899 249.811 567.722 249.766 567.521 249.766C567.319 249.766 567.141 249.811 566.984 249.902C566.833 249.987 566.715 250.111 566.629 250.272C566.544 250.428 566.501 250.615 566.501 250.831V251.013C566.501 251.234 566.549 251.431 566.644 251.602C566.745 251.768 566.884 251.897 567.06 251.987C567.241 252.073 567.453 252.116 567.695 252.116C567.911 252.116 568.1 252.083 568.261 252.018C568.428 251.952 568.579 251.854 568.715 251.723L569.342 252.403C569.156 252.615 568.921 252.778 568.639 252.894C568.357 253.005 568.032 253.06 567.664 253.06ZM571.27 253L569.804 248.935H570.914L572.131 252.433H571.602L572.872 248.935H573.869L575.101 252.433H574.572L575.826 248.935H576.869L575.395 253H574.254L573.174 250H573.521L572.403 253H571.27Z" fill="white"/>
<ellipse cx="523.325" cy="156.776" rx="18.3247" ry="16.7758" fill="#FD1205"/>
<path d="M514.627 158V152.71H515.64L518.761 156.519H518.269V152.71H519.478V158H518.473L515.345 154.192H515.836V158H514.627ZM522.664 158.06C522.201 158.06 521.793 157.97 521.44 157.788C521.093 157.607 520.823 157.36 520.632 157.048C520.44 156.731 520.345 156.37 520.345 155.967C520.345 155.559 520.438 155.199 520.624 154.887C520.816 154.569 521.075 154.322 521.403 154.146C521.73 153.965 522.1 153.874 522.513 153.874C522.911 153.874 523.269 153.96 523.586 154.131C523.909 154.297 524.163 154.539 524.35 154.856C524.536 155.169 524.629 155.544 524.629 155.982C524.629 156.028 524.627 156.081 524.622 156.141C524.617 156.197 524.612 156.249 524.606 156.3H521.304V155.612H523.987L523.533 155.816C523.533 155.605 523.491 155.421 523.405 155.265C523.319 155.108 523.201 154.987 523.05 154.902C522.899 154.811 522.722 154.766 522.521 154.766C522.319 154.766 522.141 154.811 521.984 154.902C521.833 154.987 521.715 155.111 521.629 155.272C521.544 155.428 521.501 155.615 521.501 155.831V156.013C521.501 156.234 521.549 156.431 521.644 156.602C521.745 156.768 521.884 156.897 522.06 156.987C522.241 157.073 522.453 157.116 522.695 157.116C522.911 157.116 523.1 157.083 523.261 157.018C523.428 156.952 523.579 156.854 523.715 156.723L524.342 157.403C524.156 157.615 523.921 157.778 523.639 157.894C523.357 158.005 523.032 158.06 522.664 158.06ZM526.27 158L524.804 153.935H525.914L527.131 157.433H526.602L527.872 153.935H528.869L530.101 157.433H529.572L530.826 153.935H531.869L530.395 158H529.254L528.174 155H528.521L527.403 158H526.27Z" fill="white"/>
<rect x="175.92" y="173.92" width="182.16" height="96.5898" fill="black" stroke="#A261B1" stroke-width="1.84"/>
<path d="M338.76 238.825L341.927 248.602H352.176L343.885 254.644L347.052 264.421L338.76 258.379L330.468 264.421L333.635 254.644L325.344 248.602H335.593L338.76 238.825Z" fill="#A261B1"/>
<ellipse cx="357.325" cy="177.776" rx="18.3247" ry="16.7758" fill="#FD1205"/>
<path d="M348.627 179V173.71H349.64L352.761 177.519H352.269V173.71H353.478V179H352.473L349.345 175.192H349.836V179H348.627ZM356.664 179.06C356.201 179.06 355.793 178.97 355.44 178.788C355.093 178.607 354.823 178.36 354.632 178.048C354.44 177.731 354.345 177.37 354.345 176.967C354.345 176.559 354.438 176.199 354.624 175.887C354.816 175.569 355.075 175.322 355.403 175.146C355.73 174.965 356.1 174.874 356.513 174.874C356.911 174.874 357.269 174.96 357.586 175.131C357.909 175.297 358.163 175.539 358.35 175.856C358.536 176.169 358.629 176.544 358.629 176.982C358.629 177.028 358.627 177.081 358.622 177.141C358.617 177.197 358.612 177.249 358.606 177.3H355.304V176.612H357.987L357.533 176.816C357.533 176.605 357.491 176.421 357.405 176.265C357.319 176.108 357.201 175.987 357.05 175.902C356.899 175.811 356.722 175.766 356.521 175.766C356.319 175.766 356.141 175.811 355.984 175.902C355.833 175.987 355.715 176.111 355.629 176.272C355.544 176.428 355.501 176.615 355.501 176.831V177.013C355.501 177.234 355.549 177.431 355.644 177.602C355.745 177.768 355.884 177.897 356.06 177.987C356.241 178.073 356.453 178.116 356.695 178.116C356.911 178.116 357.1 178.083 357.261 178.018C357.428 177.952 357.579 177.854 357.715 177.723L358.342 178.403C358.156 178.615 357.921 178.778 357.639 178.894C357.357 179.005 357.032 179.06 356.664 179.06ZM360.27 179L358.804 174.935H359.914L361.131 178.433H360.602L361.872 174.935H362.869L364.101 178.433H363.572L364.826 174.935H365.869L364.395 179H363.254L362.174 176H362.521L361.403 179H360.27Z" fill="white"/>
<defs>
<linearGradient id="paint0_linear_627_209" x1="-8.736" y1="324.89" x2="708.345" y2="58.2462" gradientUnits="userSpaceOnUse">
<stop offset="0.337512" stop-color="#652370" stop-opacity="0.87"/>
<stop offset="1" stop-color="#DB1CA6" stop-opacity="0.58"/>
</linearGradient>
</defs>
</svg>
