<svg width="416" height="180" viewBox="0 0 416 180" fill="none" xmlns="http://www.w3.org/2000/svg">
<rect width="416" height="180" fill="url(#paint0_linear_627_428)"/>
<path d="M27.2459 34.8684V19.5995L28.1797 20.5333H21.6178V17.2019H36.9372V20.5333H30.3754L31.2839 19.5995V34.8684H27.2459ZM44.4589 35.0703C42.9109 35.0703 41.5481 34.7675 40.3703 34.1617C39.2094 33.556 38.3092 32.7316 37.6699 31.6884C37.0305 30.6284 36.7108 29.4254 36.7108 28.0794C36.7108 26.7166 37.0221 25.5136 37.6447 24.4704C38.284 23.4104 39.1505 22.586 40.2441 21.9971C41.3378 21.3914 42.5744 21.0885 43.9541 21.0885C45.2833 21.0885 46.4779 21.3746 47.5379 21.9466C48.6147 22.5019 49.4644 23.3095 50.0869 24.3695C50.7094 25.4126 51.0207 26.6661 51.0207 28.1299C51.0207 28.2813 51.0123 28.458 50.9955 28.6599C50.9786 28.845 50.9618 29.0216 50.945 29.1899H39.9161V26.8932H48.8755L47.3612 27.5747C47.3612 26.868 47.2182 26.2539 46.9322 25.7323C46.6462 25.2107 46.2508 24.8069 45.746 24.5209C45.2412 24.218 44.6524 24.0666 43.9794 24.0666C43.3063 24.0666 42.709 24.218 42.1875 24.5209C41.6827 24.8069 41.2873 25.2191 41.0013 25.7575C40.7153 26.2791 40.5722 26.9017 40.5722 27.6251V28.2309C40.5722 28.9712 40.7321 29.6273 41.0518 30.1994C41.3883 30.7546 41.851 31.1837 42.4398 31.4865C43.0456 31.7726 43.7522 31.9156 44.5598 31.9156C45.2833 31.9156 45.9143 31.8062 46.4527 31.5875C47.0079 31.3688 47.5127 31.0407 47.9669 30.6032L50.0617 32.8746C49.4391 33.5813 48.6568 34.1281 47.7146 34.5151C46.7723 34.8852 45.6871 35.0703 44.4589 35.0703ZM60.7771 35.1713C59.6666 35.1713 58.6571 35.0114 57.7486 34.6917C56.84 34.3552 56.0492 33.8421 55.3762 33.1522C54.72 32.4456 54.2069 31.5454 53.8367 30.4518C53.4834 29.3581 53.3067 28.0542 53.3067 26.5399C53.3067 25.4631 53.3992 24.4788 53.5843 23.5871C53.7694 22.6954 54.047 21.8877 54.4172 21.1643C54.7873 20.4239 55.2584 19.7762 55.8305 19.2209C56.4194 18.6489 57.1008 18.1778 57.8748 17.8076C58.6655 17.4206 59.5573 17.1262 60.55 16.9243L67.0109 15.6372L67.5409 19.019L61.8371 20.1547C61.5006 20.222 61.1136 20.3146 60.6762 20.4324C60.2555 20.5333 59.8265 20.6931 59.389 20.9119C58.9684 21.1306 58.573 21.4419 58.2029 21.8457C57.8495 22.2327 57.5635 22.7458 57.3448 23.3852C57.126 24.0077 57.0167 24.7817 57.0167 25.7071C57.0167 25.9931 57.0251 26.2118 57.0419 26.3633C57.0756 26.5147 57.1008 26.6745 57.1176 26.8428C57.1513 27.011 57.1681 27.2718 57.1681 27.6251L55.9062 26.3885C56.2764 25.5977 56.7475 24.9247 57.3195 24.3695C57.9084 23.8142 58.5814 23.3936 59.3386 23.1076C60.1125 22.8047 60.9706 22.6533 61.9128 22.6533C63.1915 22.6533 64.3104 22.9141 65.2695 23.4357C66.2453 23.9404 67.0024 24.6555 67.5409 25.5809C68.0793 26.5063 68.3485 27.5578 68.3485 28.7356C68.3485 30.0143 68.0288 31.1416 67.3894 32.1175C66.7501 33.0765 65.8583 33.8252 64.7142 34.3637C63.5869 34.9021 62.2746 35.1713 60.7771 35.1713ZM60.979 32.1175C61.6352 32.1175 62.2157 31.9745 62.7204 31.6884C63.2252 31.3856 63.6122 30.9902 63.8814 30.5023C64.1674 29.9975 64.3104 29.4339 64.3104 28.8113C64.3104 28.2056 64.1674 27.6672 63.8814 27.1961C63.6122 26.725 63.2252 26.3548 62.7204 26.0856C62.2157 25.8164 61.6268 25.6818 60.9538 25.6818C60.2976 25.6818 59.7087 25.8164 59.1871 26.0856C58.6655 26.338 58.2617 26.6913 57.9757 27.1456C57.6897 27.5999 57.5467 28.1299 57.5467 28.7356C57.5467 29.3581 57.6897 29.9302 57.9757 30.4518C58.2786 30.9565 58.6824 31.3603 59.1871 31.6632C59.7087 31.9661 60.306 32.1175 60.979 32.1175ZM79.1566 34.8684V30.3508L79.7118 30.9818H75.9514C73.9996 30.9818 72.4685 30.578 71.3581 29.7704C70.2476 28.9628 69.6924 27.8018 69.6924 26.2875C69.6924 24.6723 70.2729 23.4357 71.4338 22.5776C72.6116 21.7195 74.1931 21.2904 76.1785 21.2904H82.6646V34.8684H79.1566ZM69.4905 34.8684L73.0995 29.6946H77.1123L73.68 34.8684H69.4905ZM79.1566 29.1394V23.4861L79.7118 24.4957H76.2542C75.4466 24.4957 74.8157 24.6471 74.3614 24.9499C73.9239 25.2528 73.7052 25.7407 73.7052 26.4137C73.7052 27.7093 74.5381 28.357 76.2037 28.357H79.7118L79.1566 29.1394ZM109.925 34.8684L106.316 28.4328L109.496 26.5399L114.594 34.8684H109.925ZM103.994 29.7199V26.5652H108.713V29.7199H103.994ZM109.9 28.5337L106.19 28.1299L110.102 21.2904H114.266L109.9 28.5337ZM96.4983 34.8684H91.8546L96.9274 26.5399L100.107 28.4328L96.4983 34.8684ZM105.155 34.8684H101.268V21.2904H105.155V34.8684ZM102.429 29.7199H97.735V26.5652H102.429V29.7199ZM96.5236 28.5337L92.1574 21.2904H96.3217L100.208 28.1299L96.5236 28.5337ZM125.978 33.1018V24.5209H121.536L121.461 26.2623C121.427 26.9858 121.385 27.6756 121.335 28.3318C121.284 28.988 121.183 29.5853 121.032 30.1237C120.897 30.6453 120.695 31.0911 120.426 31.4613C120.157 31.8146 119.795 32.0586 119.341 32.1932L115.454 31.638C115.942 31.638 116.337 31.4949 116.64 31.2089C116.943 30.9061 117.179 30.4938 117.347 29.9723C117.515 29.4339 117.641 28.8281 117.726 28.1551C117.81 27.4653 117.869 26.7418 117.902 25.9847L118.079 21.2904H129.915V33.1018H125.978ZM115 37.796V31.638H131.859V37.796H128.199V34.8684H118.659V37.796H115ZM136.179 39.9665C135.472 39.9665 134.774 39.8571 134.084 39.6384C133.394 39.4196 132.831 39.1168 132.393 38.7298L133.832 35.9284C134.134 36.1976 134.479 36.4079 134.866 36.5593C135.27 36.7108 135.666 36.7865 136.053 36.7865C136.608 36.7865 137.045 36.6519 137.365 36.3827C137.701 36.1303 138.004 35.7013 138.273 35.0955L138.98 33.4299L139.283 33.0008L144.154 21.2904H147.94L141.807 35.7013C141.369 36.7949 140.865 37.653 140.293 38.2755C139.737 38.8981 139.115 39.3355 138.425 39.5879C137.752 39.8403 137.003 39.9665 136.179 39.9665ZM138.501 35.3984L132.444 21.2904H136.507L141.201 32.6475L138.501 35.3984ZM152.815 34.8684V23.6123L153.699 24.5209H148.222V21.2904H161.32V24.5209H155.844L156.727 23.6123V34.8684H152.815ZM170.566 34.8684V21.2904H174.478V26.5904H180.384V21.2904H184.321V34.8684H180.384V29.7956H174.478V34.8684H170.566ZM194.45 35.0703C193.003 35.0703 191.716 34.7675 190.589 34.1617C189.478 33.556 188.595 32.7316 187.939 31.6884C187.299 30.6284 186.98 29.4254 186.98 28.0794C186.98 26.7166 187.299 25.5136 187.939 24.4704C188.595 23.4104 189.478 22.586 190.589 21.9971C191.716 21.3914 193.003 21.0885 194.45 21.0885C195.88 21.0885 197.159 21.3914 198.286 21.9971C199.413 22.586 200.297 23.402 200.936 24.4452C201.575 25.4883 201.895 26.6998 201.895 28.0794C201.895 29.4254 201.575 30.6284 200.936 31.6884C200.297 32.7316 199.413 33.556 198.286 34.1617C197.159 34.7675 195.88 35.0703 194.45 35.0703ZM194.45 31.8399C195.106 31.8399 195.695 31.6884 196.217 31.3856C196.738 31.0827 197.15 30.6537 197.453 30.0985C197.756 29.5264 197.908 28.8534 197.908 28.0794C197.908 27.2886 197.756 26.6156 197.453 26.0604C197.15 25.5052 196.738 25.0761 196.217 24.7733C195.695 24.4704 195.106 24.319 194.45 24.319C193.794 24.319 193.205 24.4704 192.683 24.7733C192.162 25.0761 191.741 25.5052 191.421 26.0604C191.119 26.6156 190.967 27.2886 190.967 28.0794C190.967 28.8534 191.119 29.5264 191.421 30.0985C191.741 30.6537 192.162 31.0827 192.683 31.3856C193.205 31.6884 193.794 31.8399 194.45 31.8399ZM204.603 34.8684V21.2904H211.543C213.243 21.2904 214.572 21.6017 215.531 22.2242C216.49 22.83 216.97 23.688 216.97 24.7985C216.97 25.909 216.515 26.7839 215.607 27.4232C214.715 28.0458 213.529 28.357 212.048 28.357L212.452 27.4485C214.101 27.4485 215.329 27.7513 216.137 28.357C216.961 28.9628 217.373 29.8461 217.373 31.007C217.373 32.2016 216.919 33.1438 216.011 33.8337C215.102 34.5235 213.714 34.8684 211.846 34.8684H204.603ZM208.212 32.1932H211.518C212.242 32.1932 212.78 32.0754 213.133 31.8399C213.504 31.5875 213.689 31.2089 213.689 30.7042C213.689 30.1826 213.52 29.804 213.184 29.5685C212.847 29.3161 212.317 29.1899 211.594 29.1899H208.212V32.1932ZM208.212 26.868H211.19C211.88 26.868 212.393 26.7418 212.73 26.4894C213.083 26.2371 213.26 25.8753 213.26 25.4042C213.26 24.9163 213.083 24.5545 212.73 24.319C212.393 24.0834 211.88 23.9657 211.19 23.9657H208.212V26.868ZM234.285 34.8684V21.2904H238.196V34.8684H234.285ZM227.445 25.6314C229.229 25.6482 230.566 26.052 231.458 26.8428C232.367 27.6167 232.821 28.7188 232.821 30.1489C232.821 31.6464 232.308 32.8157 231.281 33.657C230.255 34.4814 228.8 34.8936 226.915 34.8936L220.303 34.8684V21.2904H224.215V25.6314H227.445ZM226.562 32.0922C227.319 32.1091 227.899 31.9492 228.303 31.6127C228.707 31.2762 228.909 30.7715 228.909 30.0985C228.909 29.4254 228.707 28.9459 228.303 28.6599C227.899 28.357 227.319 28.1972 226.562 28.1804L224.215 28.1551V32.0922H226.562ZM248.629 35.0703C247.081 35.0703 245.718 34.7675 244.541 34.1617C243.38 33.556 242.48 32.7316 241.84 31.6884C241.201 30.6284 240.881 29.4254 240.881 28.0794C240.881 26.7166 241.192 25.5136 241.815 24.4704C242.454 23.4104 243.321 22.586 244.414 21.9971C245.508 21.3914 246.745 21.0885 248.124 21.0885C249.454 21.0885 250.648 21.3746 251.708 21.9466C252.785 22.5019 253.635 23.3095 254.257 24.3695C254.88 25.4126 255.191 26.6661 255.191 28.1299C255.191 28.2813 255.183 28.458 255.166 28.6599C255.149 28.845 255.132 29.0216 255.115 29.1899H244.086V26.8932H253.046L251.532 27.5747C251.532 26.868 251.388 26.2539 251.102 25.7323C250.816 25.2107 250.421 24.8069 249.916 24.5209C249.412 24.218 248.823 24.0666 248.15 24.0666C247.477 24.0666 246.879 24.218 246.358 24.5209C245.853 24.8069 245.458 25.2191 245.172 25.7575C244.886 26.2791 244.743 26.9017 244.743 27.6251V28.2309C244.743 28.9712 244.902 29.6273 245.222 30.1994C245.559 30.7546 246.021 31.1837 246.61 31.4865C247.216 31.7726 247.922 31.9156 248.73 31.9156C249.454 31.9156 250.085 31.8062 250.623 31.5875C251.178 31.3688 251.683 31.0407 252.137 30.6032L254.232 32.8746C253.609 33.5813 252.827 34.1281 251.885 34.5151C250.943 34.8852 249.857 35.0703 248.629 35.0703ZM23.1321 65.8684V52.2904H36.6343V65.8684H32.6972V54.6376L33.5806 55.5209H26.1606L27.044 54.6376V65.8684H23.1321ZM46.7691 66.0703C45.3221 66.0703 44.035 65.7675 42.9077 65.1617C41.7973 64.556 40.9139 63.7316 40.2578 62.6884C39.6184 61.6284 39.2987 60.4254 39.2987 59.0794C39.2987 57.7166 39.6184 56.5136 40.2578 55.4704C40.9139 54.4104 41.7973 53.586 42.9077 52.9971C44.035 52.3914 45.3221 52.0885 46.7691 52.0885C48.1993 52.0885 49.478 52.3914 50.6053 52.9971C51.7326 53.586 52.6159 54.402 53.2552 55.4452C53.8946 56.4883 54.2143 57.6998 54.2143 59.0794C54.2143 60.4254 53.8946 61.6284 53.2552 62.6884C52.6159 63.7316 51.7326 64.556 50.6053 65.1617C49.478 65.7675 48.1993 66.0703 46.7691 66.0703ZM46.7691 62.8399C47.4253 62.8399 48.0142 62.6884 48.5358 62.3856C49.0574 62.0827 49.4696 61.6537 49.7724 61.0985C50.0753 60.5264 50.2267 59.8534 50.2267 59.0794C50.2267 58.2886 50.0753 57.6156 49.7724 57.0604C49.4696 56.5052 49.0574 56.0761 48.5358 55.7733C48.0142 55.4704 47.4253 55.319 46.7691 55.319C46.1129 55.319 45.5241 55.4704 45.0025 55.7733C44.4809 56.0761 44.0603 56.5052 43.7406 57.0604C43.4377 57.6156 43.2863 58.2886 43.2863 59.0794C43.2863 59.8534 43.4377 60.5264 43.7406 61.0985C44.0603 61.6537 44.4809 62.0827 45.0025 62.3856C45.5241 62.6884 46.1129 62.8399 46.7691 62.8399ZM63.6607 66.1713C62.5503 66.1713 61.5408 66.0114 60.6322 65.6917C59.7236 65.3552 58.9328 64.8421 58.2598 64.1522C57.6036 63.4456 57.0905 62.5454 56.7203 61.4518C56.367 60.3581 56.1903 59.0542 56.1903 57.5399C56.1903 56.4631 56.2829 55.4788 56.4679 54.5871C56.653 53.6954 56.9306 52.8877 57.3008 52.1643C57.671 51.4239 58.1421 50.7762 58.7141 50.2209C59.303 49.6489 59.9844 49.1778 60.7584 48.8076C61.5492 48.4206 62.4409 48.1262 63.4336 47.9243L69.8945 46.6372L70.4245 50.019L64.7207 51.1547C64.3842 51.222 63.9972 51.3146 63.5598 51.4324C63.1392 51.5333 62.7101 51.6931 62.2727 51.9119C61.852 52.1306 61.4566 52.4419 61.0865 52.8457C60.7331 53.2327 60.4471 53.7458 60.2284 54.3852C60.0097 55.0077 59.9003 55.7817 59.9003 56.7071C59.9003 56.9931 59.9087 57.2118 59.9255 57.3633C59.9592 57.5147 59.9844 57.6745 60.0012 57.8428C60.0349 58.011 60.0517 58.2718 60.0517 58.6251L58.7898 57.3885C59.16 56.5977 59.6311 55.9247 60.2031 55.3695C60.792 54.8142 61.465 54.3936 62.2222 54.1076C62.9961 53.8047 63.8542 53.6533 64.7964 53.6533C66.0752 53.6533 67.194 53.9141 68.1531 54.4357C69.1289 54.9404 69.8861 55.6555 70.4245 56.5809C70.9629 57.5063 71.2321 58.5578 71.2321 59.7356C71.2321 61.0143 70.9124 62.1416 70.2731 63.1175C69.6337 64.0765 68.742 64.8252 67.5978 65.3637C66.4705 65.9021 65.1582 66.1713 63.6607 66.1713ZM63.8626 63.1175C64.5188 63.1175 65.0993 62.9745 65.604 62.6884C66.1088 62.3856 66.4958 61.9902 66.765 61.5023C67.051 60.9975 67.194 60.4339 67.194 59.8113C67.194 59.2056 67.051 58.6672 66.765 58.1961C66.4958 57.725 66.1088 57.3548 65.604 57.0856C65.0993 56.8164 64.5104 56.6818 63.8374 56.6818C63.1812 56.6818 62.5923 56.8164 62.0707 57.0856C61.5492 57.338 61.1454 57.6913 60.8593 58.1456C60.5733 58.5999 60.4303 59.1299 60.4303 59.7356C60.4303 60.3581 60.5733 60.9302 60.8593 61.4518C61.1622 61.9565 61.566 62.3603 62.0707 62.6632C62.5923 62.9661 63.1896 63.1175 63.8626 63.1175ZM80.5411 66.0703C78.9932 66.0703 77.6303 65.7675 76.4526 65.1617C75.2916 64.556 74.3915 63.7316 73.7521 62.6884C73.1128 61.6284 72.7931 60.4254 72.7931 59.0794C72.7931 57.7166 73.1044 56.5136 73.7269 55.4704C74.3663 54.4104 75.2328 53.586 76.3264 52.9971C77.42 52.3914 78.6567 52.0885 80.0364 52.0885C81.3656 52.0885 82.5601 52.3746 83.6201 52.9466C84.6969 53.5019 85.5466 54.3095 86.1692 55.3695C86.7917 56.4126 87.103 57.6661 87.103 59.1299C87.103 59.2813 87.0945 59.458 87.0777 59.6599C87.0609 59.845 87.0441 60.0216 87.0272 60.1899H75.9983V57.8932H84.9577L83.4435 58.5747C83.4435 57.868 83.3005 57.2539 83.0144 56.7323C82.7284 56.2107 82.333 55.8069 81.8282 55.5209C81.3235 55.218 80.7346 55.0666 80.0616 55.0666C79.3886 55.0666 78.7913 55.218 78.2697 55.5209C77.7649 55.8069 77.3696 56.2191 77.0835 56.7575C76.7975 57.2791 76.6545 57.9017 76.6545 58.6251V59.2309C76.6545 59.9712 76.8143 60.6273 77.134 61.1994C77.4705 61.7546 77.9332 62.1837 78.5221 62.4865C79.1278 62.7726 79.8345 62.9156 80.6421 62.9156C81.3656 62.9156 81.9965 62.8062 82.5349 62.5875C83.0901 62.3688 83.5949 62.0407 84.0492 61.6032L86.1439 63.8746C85.5214 64.5813 84.739 65.1281 83.7968 65.5151C82.8546 65.8852 81.7694 66.0703 80.5411 66.0703ZM99.3356 64.1018V55.5209H94.8938L94.8181 57.2623C94.7844 57.9858 94.7423 58.6756 94.6919 59.3318C94.6414 59.988 94.5404 60.5853 94.389 61.1237C94.2544 61.6453 94.0525 62.0911 93.7833 62.4613C93.5141 62.8146 93.1524 63.0586 92.6981 63.1932L88.8114 62.638C89.2994 62.638 89.6948 62.4949 89.9976 62.2089C90.3005 61.9061 90.536 61.4938 90.7043 60.9723C90.8725 60.4339 90.9987 59.8281 91.0828 59.1551C91.167 58.4653 91.2259 57.7418 91.2595 56.9847L91.4362 52.2904H103.273V64.1018H99.3356ZM88.3572 68.796V62.638H105.216V68.796H101.557V65.8684H92.0166V68.796H88.3572ZM121.675 65.8684V52.2904H125.587V65.8684H121.675ZM114.836 56.6314C116.619 56.6482 117.957 57.052 118.849 57.8428C119.757 58.6167 120.212 59.7188 120.212 61.1489C120.212 62.6464 119.698 63.8157 118.672 64.657C117.646 65.4814 116.19 65.8936 114.306 65.8936L107.694 65.8684V52.2904H111.606V56.6314H114.836ZM113.953 63.0922C114.71 63.1091 115.29 62.9492 115.694 62.6127C116.098 62.2762 116.3 61.7715 116.3 61.0985C116.3 60.4254 116.098 59.9459 115.694 59.6599C115.29 59.357 114.71 59.1972 113.953 59.1804L111.606 59.1551V63.0922H113.953Z" fill="white"/>
<path d="M113.956 147.722H116.682V159.5H113.956V147.722ZM108.605 159.5H105.88V147.722H108.605V159.5ZM114.158 154.671H108.404V152.366H114.158V154.671ZM123.671 159.634C122.706 159.634 121.848 159.432 121.096 159.029C120.356 158.625 119.767 158.075 119.33 157.38C118.903 156.673 118.69 155.871 118.69 154.974C118.69 154.065 118.903 153.263 119.33 152.568C119.767 151.861 120.356 151.311 121.096 150.919C121.848 150.515 122.706 150.313 123.671 150.313C124.624 150.313 125.476 150.515 126.228 150.919C126.979 151.311 127.568 151.855 127.995 152.551C128.421 153.246 128.634 154.054 128.634 154.974C128.634 155.871 128.421 156.673 127.995 157.38C127.568 158.075 126.979 158.625 126.228 159.029C125.476 159.432 124.624 159.634 123.671 159.634ZM123.671 157.481C124.108 157.481 124.501 157.38 124.848 157.178C125.196 156.976 125.471 156.69 125.673 156.32C125.875 155.938 125.976 155.49 125.976 154.974C125.976 154.447 125.875 153.998 125.673 153.628C125.471 153.258 125.196 152.972 124.848 152.77C124.501 152.568 124.108 152.467 123.671 152.467C123.233 152.467 122.84 152.568 122.493 152.77C122.145 152.972 121.865 153.258 121.651 153.628C121.45 153.998 121.349 154.447 121.349 154.974C121.349 155.49 121.45 155.938 121.651 156.32C121.865 156.69 122.145 156.976 122.493 157.178C122.84 157.38 123.233 157.481 123.671 157.481ZM130.439 159.5V150.448H135.066C136.199 150.448 137.085 150.655 137.725 151.07C138.364 151.474 138.684 152.046 138.684 152.786C138.684 153.527 138.381 154.11 137.775 154.536C137.181 154.951 136.39 155.159 135.403 155.159L135.672 154.553C136.771 154.553 137.59 154.755 138.128 155.159C138.678 155.563 138.953 156.152 138.953 156.925C138.953 157.722 138.65 158.35 138.044 158.81C137.439 159.27 136.513 159.5 135.268 159.5H130.439ZM132.845 157.716H135.049C135.532 157.716 135.891 157.638 136.126 157.481C136.373 157.312 136.496 157.06 136.496 156.724C136.496 156.376 136.384 156.123 136.16 155.966C135.936 155.798 135.582 155.714 135.1 155.714H132.845V157.716ZM132.845 154.166H134.831C135.291 154.166 135.633 154.082 135.857 153.914C136.093 153.746 136.21 153.504 136.21 153.19C136.21 152.865 136.093 152.624 135.857 152.467C135.633 152.31 135.291 152.231 134.831 152.231H132.845V154.166ZM140.906 159.5V150.448H143.514V155.832L147.922 150.448H150.328V159.5H147.72V154.116L143.329 159.5H140.906ZM152.851 159.5V150.448H155.459V153.981H159.396V150.448H162.021V159.5H159.396V156.118H155.459V159.5H152.851ZM170.944 159.5L167.915 155.209L170.052 153.947L174.04 159.5H170.944ZM164.533 159.5V150.448H167.158V159.5H164.533ZM166.384 156.067V153.964H169.547V156.067H166.384ZM170.304 155.277L167.848 155.007L171.028 150.448H173.821L170.304 155.277ZM175.328 159.5V150.448H177.936V155.832L182.345 150.448H184.751V159.5H182.143V154.116L177.751 159.5H175.328ZM196.279 159.634C195.314 159.634 194.456 159.432 193.704 159.029C192.964 158.625 192.375 158.075 191.938 157.38C191.511 156.673 191.298 155.871 191.298 154.974C191.298 154.065 191.511 153.263 191.938 152.568C192.375 151.861 192.964 151.311 193.704 150.919C194.456 150.515 195.314 150.313 196.279 150.313C197.232 150.313 198.085 150.515 198.836 150.919C199.588 151.311 200.176 151.855 200.603 152.551C201.029 153.246 201.242 154.054 201.242 154.974C201.242 155.871 201.029 156.673 200.603 157.38C200.176 158.075 199.588 158.625 198.836 159.029C198.085 159.432 197.232 159.634 196.279 159.634ZM196.279 157.481C196.716 157.481 197.109 157.38 197.456 157.178C197.804 156.976 198.079 156.69 198.281 156.32C198.483 155.938 198.584 155.49 198.584 154.974C198.584 154.447 198.483 153.998 198.281 153.628C198.079 153.258 197.804 152.972 197.456 152.77C197.109 152.568 196.716 152.467 196.279 152.467C195.841 152.467 195.449 152.568 195.101 152.77C194.753 152.972 194.473 153.258 194.26 153.628C194.058 153.998 193.957 154.447 193.957 154.974C193.957 155.49 194.058 155.938 194.26 156.32C194.473 156.69 194.753 156.976 195.101 157.178C195.449 157.38 195.841 157.481 196.279 157.481ZM204.654 159.5V151.996L205.243 152.601H201.591V150.448H210.324V152.601H206.673L207.262 151.996V159.5H204.654ZM220.492 159.702C219.55 159.702 218.647 159.578 217.783 159.332C216.92 159.074 216.224 158.743 215.697 158.339L216.622 156.286C217.127 156.645 217.722 156.942 218.406 157.178C219.101 157.402 219.802 157.514 220.509 157.514C221.047 157.514 221.479 157.464 221.805 157.363C222.141 157.251 222.388 157.099 222.545 156.909C222.702 156.718 222.78 156.499 222.78 156.252C222.78 155.938 222.657 155.692 222.41 155.512C222.164 155.321 221.838 155.17 221.434 155.058C221.031 154.935 220.582 154.822 220.088 154.721C219.606 154.609 219.118 154.475 218.625 154.318C218.142 154.161 217.699 153.959 217.295 153.712C216.892 153.465 216.561 153.14 216.303 152.736C216.056 152.332 215.933 151.816 215.933 151.188C215.933 150.515 216.112 149.904 216.471 149.354C216.841 148.793 217.391 148.35 218.12 148.025C218.86 147.688 219.786 147.52 220.896 147.52C221.636 147.52 222.365 147.61 223.083 147.789C223.801 147.958 224.435 148.216 224.985 148.563L224.143 150.633C223.594 150.319 223.044 150.089 222.494 149.943C221.945 149.786 221.406 149.707 220.879 149.707C220.352 149.707 219.92 149.769 219.584 149.893C219.247 150.016 219.006 150.179 218.86 150.38C218.714 150.571 218.641 150.796 218.641 151.053C218.641 151.356 218.765 151.603 219.012 151.794C219.258 151.973 219.584 152.119 219.988 152.231C220.391 152.343 220.834 152.456 221.317 152.568C221.81 152.68 222.298 152.809 222.78 152.955C223.274 153.101 223.723 153.297 224.127 153.544C224.53 153.79 224.856 154.116 225.102 154.519C225.36 154.923 225.489 155.434 225.489 156.051C225.489 156.712 225.304 157.318 224.934 157.868C224.564 158.417 224.009 158.86 223.268 159.197C222.539 159.533 221.614 159.702 220.492 159.702ZM230.986 159.634C230.235 159.634 229.562 159.489 228.967 159.197C228.384 158.905 227.929 158.462 227.604 157.868C227.279 157.262 227.116 156.494 227.116 155.563V150.448H229.741V155.176C229.741 155.927 229.898 156.482 230.212 156.841C230.537 157.189 230.992 157.363 231.575 157.363C231.979 157.363 232.338 157.279 232.652 157.111C232.966 156.931 233.213 156.662 233.392 156.303C233.572 155.933 233.661 155.473 233.661 154.923V150.448H236.286V159.5H233.796V157.01L234.25 157.733C233.947 158.361 233.499 158.838 232.904 159.163C232.321 159.477 231.682 159.634 230.986 159.634ZM244.068 159.634C243.305 159.634 242.638 159.466 242.066 159.13C241.494 158.793 241.045 158.283 240.72 157.599C240.406 156.903 240.249 156.028 240.249 154.974C240.249 153.908 240.4 153.033 240.703 152.349C241.006 151.665 241.443 151.154 242.015 150.818C242.587 150.481 243.272 150.313 244.068 150.313C244.921 150.313 245.683 150.509 246.356 150.902C247.041 151.283 247.579 151.822 247.972 152.517C248.375 153.213 248.577 154.032 248.577 154.974C248.577 155.927 248.375 156.752 247.972 157.447C247.579 158.143 247.041 158.681 246.356 159.062C245.683 159.444 244.921 159.634 244.068 159.634ZM238.718 162.764V150.448H241.225V152.299L241.174 154.991L241.342 157.666V162.764H238.718ZM243.614 157.481C244.051 157.481 244.438 157.38 244.775 157.178C245.122 156.976 245.397 156.69 245.599 156.32C245.812 155.938 245.919 155.49 245.919 154.974C245.919 154.447 245.812 153.998 245.599 153.628C245.397 153.258 245.122 152.972 244.775 152.77C244.438 152.568 244.051 152.467 243.614 152.467C243.176 152.467 242.784 152.568 242.436 152.77C242.088 152.972 241.814 153.258 241.612 153.628C241.41 153.998 241.309 154.447 241.309 154.974C241.309 155.49 241.41 155.938 241.612 156.32C241.814 156.69 242.088 156.976 242.436 157.178C242.784 157.38 243.176 157.481 243.614 157.481ZM254.827 159.634C253.795 159.634 252.886 159.432 252.101 159.029C251.327 158.625 250.727 158.075 250.301 157.38C249.874 156.673 249.661 155.871 249.661 154.974C249.661 154.065 249.869 153.263 250.284 152.568C250.71 151.861 251.288 151.311 252.017 150.919C252.746 150.515 253.57 150.313 254.49 150.313C255.376 150.313 256.173 150.504 256.879 150.885C257.597 151.255 258.164 151.794 258.579 152.5C258.994 153.196 259.201 154.032 259.201 155.007C259.201 155.108 259.196 155.226 259.184 155.361C259.173 155.484 259.162 155.602 259.151 155.714H251.798V154.183H257.771L256.762 154.637C256.762 154.166 256.666 153.757 256.476 153.409C256.285 153.061 256.021 152.792 255.685 152.601C255.348 152.4 254.956 152.299 254.507 152.299C254.058 152.299 253.66 152.4 253.312 152.601C252.976 152.792 252.712 153.067 252.522 153.426C252.331 153.774 252.236 154.189 252.236 154.671V155.075C252.236 155.568 252.342 156.006 252.555 156.387C252.78 156.757 253.088 157.043 253.481 157.245C253.884 157.436 254.356 157.531 254.894 157.531C255.376 157.531 255.797 157.458 256.156 157.312C256.526 157.167 256.863 156.948 257.165 156.656L258.562 158.171C258.147 158.642 257.625 159.006 256.997 159.264C256.369 159.511 255.645 159.634 254.827 159.634ZM260.949 159.5V150.448H263.456V153.005L263.102 152.265C263.372 151.626 263.803 151.143 264.398 150.818C264.992 150.481 265.716 150.313 266.568 150.313V152.736C266.456 152.725 266.355 152.719 266.265 152.719C266.176 152.708 266.08 152.702 265.979 152.702C265.262 152.702 264.678 152.91 264.23 153.325C263.792 153.729 263.573 154.362 263.573 155.226V159.5H260.949ZM271.24 159.634C270.466 159.634 269.72 159.545 269.002 159.365C268.296 159.174 267.735 158.939 267.32 158.658L268.195 156.774C268.61 157.032 269.098 157.245 269.658 157.413C270.231 157.57 270.791 157.649 271.341 157.649C271.947 157.649 272.373 157.576 272.62 157.43C272.878 157.284 273.007 157.083 273.007 156.825C273.007 156.611 272.906 156.454 272.704 156.353C272.513 156.241 272.255 156.157 271.93 156.101C271.605 156.045 271.246 155.989 270.853 155.933C270.472 155.877 270.085 155.804 269.692 155.714C269.3 155.613 268.941 155.467 268.615 155.277C268.29 155.086 268.026 154.828 267.825 154.503C267.634 154.177 267.539 153.757 267.539 153.241C267.539 152.669 267.701 152.164 268.026 151.726C268.363 151.289 268.845 150.947 269.473 150.7C270.102 150.442 270.853 150.313 271.728 150.313C272.345 150.313 272.973 150.38 273.612 150.515C274.252 150.65 274.785 150.846 275.211 151.104L274.336 152.972C273.898 152.714 273.455 152.54 273.007 152.45C272.569 152.349 272.143 152.299 271.728 152.299C271.145 152.299 270.718 152.377 270.449 152.534C270.18 152.691 270.045 152.893 270.045 153.14C270.045 153.364 270.141 153.532 270.331 153.645C270.533 153.757 270.797 153.846 271.122 153.914C271.448 153.981 271.801 154.043 272.182 154.099C272.575 154.144 272.967 154.217 273.36 154.318C273.753 154.419 274.106 154.564 274.42 154.755C274.745 154.935 275.009 155.187 275.211 155.512C275.413 155.826 275.514 156.241 275.514 156.757C275.514 157.318 275.345 157.817 275.009 158.255C274.672 158.681 274.184 159.017 273.545 159.264C272.917 159.511 272.149 159.634 271.24 159.634ZM280.835 159.634C279.769 159.634 278.939 159.365 278.345 158.827C277.75 158.277 277.453 157.464 277.453 156.387V148.446H280.078V156.353C280.078 156.735 280.178 157.032 280.38 157.245C280.582 157.447 280.857 157.548 281.205 157.548C281.62 157.548 281.973 157.436 282.265 157.212L282.971 159.062C282.702 159.253 282.377 159.399 281.996 159.5C281.625 159.589 281.238 159.634 280.835 159.634ZM276.056 152.669V150.65H282.332V152.669H276.056ZM289.997 159.5V157.733L289.829 157.346V154.183C289.829 153.622 289.655 153.185 289.307 152.871C288.971 152.557 288.449 152.4 287.743 152.4C287.26 152.4 286.784 152.478 286.312 152.635C285.853 152.781 285.46 152.983 285.135 153.241L284.192 151.407C284.686 151.059 285.28 150.79 285.976 150.599C286.671 150.409 287.378 150.313 288.096 150.313C289.476 150.313 290.547 150.638 291.31 151.289C292.072 151.94 292.454 152.955 292.454 154.334V159.5H289.997ZM287.238 159.634C286.531 159.634 285.925 159.517 285.421 159.281C284.916 159.034 284.529 158.703 284.26 158.288C283.991 157.873 283.856 157.408 283.856 156.892C283.856 156.353 283.985 155.882 284.243 155.479C284.512 155.075 284.933 154.761 285.505 154.536C286.077 154.301 286.823 154.183 287.743 154.183H290.149V155.714H288.029C287.412 155.714 286.985 155.815 286.75 156.017C286.526 156.219 286.413 156.471 286.413 156.774C286.413 157.111 286.542 157.38 286.8 157.582C287.07 157.772 287.434 157.868 287.894 157.868C288.331 157.868 288.724 157.767 289.072 157.565C289.42 157.352 289.672 157.043 289.829 156.639L290.233 157.851C290.042 158.434 289.694 158.877 289.19 159.18C288.685 159.483 288.034 159.634 287.238 159.634ZM294.829 159.5V150.448H297.336V153.005L296.983 152.265C297.252 151.626 297.684 151.143 298.278 150.818C298.873 150.481 299.596 150.313 300.449 150.313V152.736C300.337 152.725 300.236 152.719 300.146 152.719C300.056 152.708 299.961 152.702 299.86 152.702C299.142 152.702 298.559 152.91 298.11 153.325C297.673 153.729 297.454 154.362 297.454 155.226V159.5H294.829Z" fill="white"/>
<path d="M283.82 135.77L267.215 126.619C265.651 125.757 265.805 123.462 267.469 122.816L294.631 112.274C295.222 112.045 295.884 112.094 296.435 112.409L312.082 121.345C313.602 122.214 313.457 124.452 311.837 125.117L285.634 135.873C285.045 136.115 284.378 136.077 283.82 135.77Z" fill="#3C3C3C" stroke="black" stroke-width="0.210315"/>
<path d="M280.886 125.651V116.733L282.647 116.25V126.133L280.886 125.651Z" fill="#1B1B1B"/>
<path d="M296.739 110.466L282.647 116.095V126.132L296.739 121.968V110.466Z" fill="#3C3C3C" stroke="black" stroke-width="0.0420631"/>
<path d="M232.682 133.032L237.142 133.845L236.019 69.4944C235.988 67.7506 237.037 66.1688 238.655 65.5182L335.492 26.5879L329.72 22.9428C328.554 22.2065 327.102 22.0884 325.832 22.6266L232.062 62.383C230.513 63.0396 229.505 64.5556 229.498 66.2377L229.231 128.876C229.222 130.914 230.677 132.666 232.682 133.032Z" fill="#575757"/>
<path d="M331.121 25.9918L238.251 65.0336C236.69 65.6898 235.674 67.218 235.674 68.9112V131.934C235.674 132.964 236.236 133.912 237.14 134.407C237.884 134.814 238.773 134.865 239.558 134.544L334.342 95.8669C335.925 95.2211 336.96 93.6817 336.96 91.9724V29.8706C336.96 28.4273 336.219 27.0842 334.998 26.3135C333.836 25.5797 332.388 25.4592 331.121 25.9918Z" fill="black"/>
<path d="M241.173 67.6799L298.207 43.46L284.996 113.358L239.764 131.456C239.212 131.677 238.61 131.27 238.61 130.675V71.5516C238.61 69.8638 239.619 68.3396 241.173 67.6799Z" fill="#4C83E8"/>
<path d="M332.569 29.0048L298.208 43.4599L284.997 113.358L333.499 93.5673C333.816 93.4376 334.023 93.1279 334.022 92.7846L333.737 29.7765C333.734 29.1766 333.122 28.7722 332.569 29.0048Z" fill="#5BA0EE"/>
<ellipse cx="328.224" cy="34.3255" rx="12.48" ry="12.5581" fill="#FD1205"/>
<path d="M318.939 37.3022V31.4134H320.066L323.541 35.6534H322.994V31.4134H324.34V37.3022H323.221L319.738 33.0623H320.285V37.3022H318.939ZM327.887 37.3695C327.371 37.3695 326.917 37.2686 326.524 37.0667C326.137 36.8648 325.837 36.59 325.624 36.2423C325.411 35.8889 325.304 35.4879 325.304 35.0393C325.304 34.585 325.408 34.184 325.615 33.8362C325.828 33.4829 326.117 33.2081 326.482 33.0118C326.846 32.8099 327.259 32.709 327.719 32.709C328.162 32.709 328.56 32.8043 328.913 32.995C329.272 33.1801 329.555 33.4493 329.763 33.8026C329.97 34.1503 330.074 34.5681 330.074 35.0561C330.074 35.1066 330.071 35.1654 330.066 35.2327C330.06 35.2944 330.054 35.3533 330.049 35.4094H326.373V34.6439H329.359L328.854 34.871C328.854 34.6354 328.807 34.4307 328.711 34.2569C328.616 34.083 328.484 33.9484 328.316 33.8531C328.148 33.7521 327.951 33.7016 327.727 33.7016C327.503 33.7016 327.303 33.7521 327.13 33.8531C326.961 33.9484 326.83 34.0858 326.734 34.2653C326.639 34.4392 326.591 34.6467 326.591 34.8878V35.0897C326.591 35.3365 326.645 35.5552 326.751 35.7459C326.863 35.931 327.017 36.074 327.214 36.175C327.416 36.2703 327.651 36.318 327.92 36.318C328.162 36.318 328.372 36.2815 328.551 36.2086C328.736 36.1357 328.905 36.0263 329.056 35.8805L329.754 36.6376C329.547 36.8732 329.286 37.0555 328.972 37.1845C328.658 37.3079 328.296 37.3695 327.887 37.3695ZM331.9 37.3022L330.268 32.7763H331.505L332.859 36.6713H332.271L333.684 32.7763H334.794L336.166 36.6713H335.577L336.973 32.7763H338.134L336.494 37.3022H335.223L334.02 33.9624H334.407L333.162 37.3022H331.9Z" fill="white"/>
<defs>
<linearGradient id="paint0_linear_627_428" x1="208" y1="0" x2="319.491" y2="193.842" gradientUnits="userSpaceOnUse">
<stop stop-color="#64286E"/>
<stop offset="1" stop-color="#DB5AF0" stop-opacity="0.52"/>
</linearGradient>
</defs>
</svg>
