<svg width="416" height="180" viewBox="0 0 416 180" fill="none" xmlns="http://www.w3.org/2000/svg">
<path d="M0 0H416V180H0V0Z" fill="url(#paint0_linear_627_352)"/>
<path d="M26.6797 31.8684V18.0393L27.5255 18.8851H21.5824V15.8678H35.4572V18.8851H29.5141L30.337 18.0393V31.8684H26.6797ZM42.2696 32.0513C40.8676 32.0513 39.6333 31.777 38.5666 31.2284C37.5151 30.6798 36.6998 29.9331 36.1208 28.9883C35.5417 28.0283 35.2522 26.9387 35.2522 25.7196C35.2522 24.4853 35.5341 23.3957 36.0979 22.4509C36.677 21.4909 37.4618 20.7442 38.4523 20.2108C39.4428 19.6622 40.5629 19.3879 41.8124 19.3879C43.0163 19.3879 44.0982 19.647 45.0583 20.1651C46.0335 20.668 46.8031 21.3994 47.3669 22.3595C47.9307 23.3043 48.2127 24.4396 48.2127 25.7653C48.2127 25.9025 48.205 26.0625 48.1898 26.2453C48.1746 26.413 48.1593 26.573 48.1441 26.7254H38.1551V24.6453H46.2697L44.8983 25.2624C44.8983 24.6224 44.7687 24.0662 44.5097 23.5938C44.2506 23.1214 43.8925 22.7557 43.4353 22.4966C42.9782 22.2223 42.4448 22.0852 41.8353 22.0852C41.2257 22.0852 40.6848 22.2223 40.2124 22.4966C39.7552 22.7557 39.3971 23.129 39.138 23.6167C38.879 24.0891 38.7494 24.6529 38.7494 25.3082V25.8568C38.7494 26.5273 38.8942 27.1216 39.1838 27.6397C39.4885 28.1426 39.9076 28.5311 40.4409 28.8054C40.9895 29.0645 41.6296 29.194 42.361 29.194C43.0163 29.194 43.5877 29.095 44.0754 28.8969C44.5782 28.6988 45.0354 28.4016 45.4468 28.0054L47.3441 30.0626C46.7802 30.7026 46.0716 31.1979 45.2183 31.5484C44.3649 31.8836 43.382 32.0513 42.2696 32.0513ZM57.0491 32.1427C56.0433 32.1427 55.129 31.9979 54.3061 31.7084C53.4832 31.4036 52.767 30.9388 52.1575 30.3141C51.5631 29.674 51.0984 28.8588 50.7631 27.8683C50.4431 26.8777 50.2831 25.6967 50.2831 24.3253C50.2831 23.35 50.3669 22.4585 50.5345 21.6509C50.7022 20.8432 50.9536 20.1118 51.2888 19.4565C51.6241 18.786 52.0508 18.1993 52.5689 17.6964C53.1023 17.1783 53.7194 16.7516 54.4204 16.4164C55.1366 16.0659 55.9443 15.7992 56.8433 15.6164L62.695 14.4506L63.175 17.5136L58.0091 18.5422C57.7043 18.6031 57.3538 18.687 56.9576 18.7936C56.5767 18.8851 56.1881 19.0298 55.7919 19.2279C55.4109 19.426 55.0528 19.7079 54.7175 20.0737C54.3975 20.4242 54.1385 20.8889 53.9404 21.468C53.7423 22.0318 53.6432 22.7328 53.6432 23.571C53.6432 23.83 53.6508 24.0281 53.6661 24.1653C53.6966 24.3024 53.7194 24.4472 53.7347 24.5996C53.7651 24.7519 53.7804 24.9881 53.7804 25.3082L52.6375 24.1881C52.9727 23.4719 53.3994 22.8624 53.9175 22.3595C54.4509 21.8566 55.0604 21.4756 55.7462 21.2166C56.4471 20.9423 57.2243 20.8051 58.0777 20.8051C59.2358 20.8051 60.2492 21.0413 61.1178 21.5137C62.0016 21.9709 62.6874 22.6185 63.175 23.4567C63.6626 24.2948 63.9065 25.2472 63.9065 26.3139C63.9065 27.4721 63.6169 28.493 63.0379 29.3769C62.4588 30.2455 61.6511 30.9236 60.6149 31.4112C59.5939 31.8989 58.4053 32.1427 57.0491 32.1427ZM57.2319 29.3769C57.8262 29.3769 58.352 29.2474 58.8091 28.9883C59.2663 28.714 59.6168 28.3559 59.8606 27.914C60.1197 27.4568 60.2492 26.9463 60.2492 26.3825C60.2492 25.8339 60.1197 25.3463 59.8606 24.9196C59.6168 24.4929 59.2663 24.1576 58.8091 23.9138C58.352 23.67 57.8186 23.5481 57.2091 23.5481C56.6148 23.5481 56.0814 23.67 55.609 23.9138C55.1366 24.1424 54.7709 24.4624 54.5118 24.8739C54.2528 25.2853 54.1232 25.7653 54.1232 26.3139C54.1232 26.8777 54.2528 27.3959 54.5118 27.8683C54.7861 28.3254 55.1519 28.6911 55.609 28.9654C56.0814 29.2397 56.6224 29.3769 57.2319 29.3769ZM73.6954 31.8684V27.7768L74.1983 28.3483H70.7924C69.0248 28.3483 67.638 27.9825 66.6323 27.2511C65.6265 26.5196 65.1237 25.4682 65.1237 24.0967C65.1237 22.6338 65.6494 21.5137 66.7009 20.7366C67.7676 19.9594 69.2 19.5708 70.9982 19.5708H76.8727V31.8684H73.6954ZM64.9408 31.8684L68.2095 27.1825H71.8439L68.7352 31.8684H64.9408ZM73.6954 26.6796V21.5594L74.1983 22.4738H71.0667C70.3353 22.4738 69.7638 22.6109 69.3524 22.8852C68.9562 23.1595 68.7581 23.6014 68.7581 24.211C68.7581 25.3844 69.5124 25.971 71.021 25.971H74.1983L73.6954 26.6796ZM101.562 31.8684L98.2937 26.0396L101.174 24.3253L105.791 31.8684H101.562ZM96.1907 27.2054V24.3481H100.465V27.2054H96.1907ZM101.539 26.131L98.1794 25.7653L101.722 19.5708H105.494L101.539 26.131ZM89.4019 31.8684H85.196L89.7905 24.3253L92.6706 26.0396L89.4019 31.8684ZM97.2422 31.8684H93.7221V19.5708H97.2422V31.8684ZM94.7735 27.2054H90.5219V24.3481H94.7735V27.2054ZM89.4248 26.131L85.4703 19.5708H89.2419L92.762 25.7653L89.4248 26.131ZM116.102 30.2683V22.4966H112.079L112.01 24.0738C111.98 24.7291 111.942 25.3539 111.896 25.9482C111.85 26.5425 111.759 27.0835 111.622 27.5711C111.5 28.0435 111.317 28.4473 111.073 28.7826C110.829 29.1026 110.502 29.3236 110.09 29.4455L106.57 28.9426C107.012 28.9426 107.37 28.8131 107.645 28.554C107.919 28.2797 108.132 27.9064 108.285 27.434C108.437 26.9463 108.551 26.3977 108.627 25.7882C108.704 25.1634 108.757 24.5081 108.787 23.8224L108.947 19.5708H119.668V30.2683H116.102ZM106.159 34.5199V28.9426H121.428V34.5199H118.114V31.8684H109.473V34.5199H106.159ZM125.341 36.4857C124.701 36.4857 124.068 36.3867 123.443 36.1886C122.819 35.9905 122.308 35.7162 121.912 35.3657L123.215 32.8284C123.489 33.0723 123.801 33.2627 124.152 33.3999C124.518 33.537 124.876 33.6056 125.226 33.6056C125.729 33.6056 126.125 33.4837 126.415 33.2399C126.72 33.0113 126.994 32.6227 127.238 32.0741L127.878 30.5655L128.152 30.1769L132.564 19.5708H135.992L130.438 32.6227C130.042 33.6132 129.585 34.3904 129.066 34.9542C128.564 35.5181 128 35.9143 127.375 36.1429C126.765 36.3714 126.087 36.4857 125.341 36.4857ZM127.444 32.3484L121.958 19.5708H125.638L129.889 29.8569L127.444 32.3484ZM140.408 31.8684V21.6737L141.208 22.4966H136.248V19.5708H148.111V22.4966H143.151L143.951 21.6737V31.8684H140.408ZM156.486 31.8684V19.5708H160.029V24.371H165.377V19.5708H168.943V31.8684H165.377V27.2739H160.029V31.8684H156.486ZM178.117 32.0513C176.806 32.0513 175.641 31.777 174.62 31.2284C173.614 30.6798 172.814 29.9331 172.22 28.9883C171.641 28.0283 171.351 26.9387 171.351 25.7196C171.351 24.4853 171.641 23.3957 172.22 22.4509C172.814 21.4909 173.614 20.7442 174.62 20.2108C175.641 19.6622 176.806 19.3879 178.117 19.3879C179.412 19.3879 180.57 19.6622 181.591 20.2108C182.612 20.7442 183.412 21.4833 183.992 22.4281C184.571 23.3728 184.86 24.47 184.86 25.7196C184.86 26.9387 184.571 28.0283 183.992 28.9883C183.412 29.9331 182.612 30.6798 181.591 31.2284C180.57 31.777 179.412 32.0513 178.117 32.0513ZM178.117 29.1254C178.711 29.1254 179.245 28.9883 179.717 28.714C180.189 28.4397 180.563 28.0511 180.837 27.5482C181.111 27.0301 181.249 26.4206 181.249 25.7196C181.249 25.0034 181.111 24.3938 180.837 23.891C180.563 23.3881 180.189 22.9995 179.717 22.7252C179.245 22.4509 178.711 22.3138 178.117 22.3138C177.523 22.3138 176.989 22.4509 176.517 22.7252C176.045 22.9995 175.664 23.3881 175.374 23.891C175.1 24.3938 174.963 25.0034 174.963 25.7196C174.963 26.4206 175.1 27.0301 175.374 27.5482C175.664 28.0511 176.045 28.4397 176.517 28.714C176.989 28.9883 177.523 29.1254 178.117 29.1254ZM187.313 31.8684V19.5708H193.599C195.138 19.5708 196.342 19.8527 197.21 20.4165C198.079 20.9651 198.513 21.7423 198.513 22.7481C198.513 23.7538 198.102 24.5462 197.279 25.1253C196.471 25.6891 195.397 25.971 194.056 25.971L194.422 25.1482C195.915 25.1482 197.027 25.4225 197.759 25.971C198.506 26.5196 198.879 27.3197 198.879 28.3711C198.879 29.4531 198.467 30.3064 197.645 30.9312C196.822 31.556 195.564 31.8684 193.873 31.8684H187.313ZM190.581 29.4455H193.576C194.231 29.4455 194.719 29.3388 195.039 29.1254C195.374 28.8969 195.542 28.554 195.542 28.0968C195.542 27.6244 195.389 27.2816 195.084 27.0682C194.78 26.8396 194.3 26.7254 193.644 26.7254H190.581V29.4455ZM190.581 24.6224H193.279C193.903 24.6224 194.368 24.5081 194.673 24.2795C194.993 24.051 195.153 23.7233 195.153 23.2967C195.153 22.8547 194.993 22.5271 194.673 22.3138C194.368 22.1004 193.903 21.9937 193.279 21.9937H190.581V24.6224ZM214.195 31.8684V19.5708H217.738V31.8684H214.195ZM208.001 23.5024C209.616 23.5176 210.828 23.8833 211.635 24.5996C212.458 25.3005 212.87 26.2987 212.87 27.594C212.87 28.9502 212.405 30.0093 211.475 30.7712C210.546 31.5179 209.228 31.8913 207.521 31.8913L201.532 31.8684V19.5708H205.075V23.5024H208.001ZM207.201 29.354C207.887 29.3693 208.412 29.2245 208.778 28.9197C209.144 28.615 209.327 28.1578 209.327 27.5482C209.327 26.9387 209.144 26.5044 208.778 26.2453C208.412 25.971 207.887 25.8263 207.201 25.811L205.075 25.7882V29.354H207.201ZM227.187 32.0513C225.785 32.0513 224.551 31.777 223.484 31.2284C222.433 30.6798 221.618 29.9331 221.038 28.9883C220.459 28.0283 220.17 26.9387 220.17 25.7196C220.17 24.4853 220.452 23.3957 221.016 22.4509C221.595 21.4909 222.379 20.7442 223.37 20.2108C224.361 19.6622 225.481 19.3879 226.73 19.3879C227.934 19.3879 229.016 19.647 229.976 20.1651C230.951 20.668 231.721 21.3994 232.285 22.3595C232.848 23.3043 233.13 24.4396 233.13 25.7653C233.13 25.9025 233.123 26.0625 233.108 26.2453C233.092 26.413 233.077 26.573 233.062 26.7254H223.073V24.6453H231.187L229.816 25.2624C229.816 24.6224 229.686 24.0662 229.427 23.5938C229.168 23.1214 228.81 22.7557 228.353 22.4966C227.896 22.2223 227.363 22.0852 226.753 22.0852C226.143 22.0852 225.602 22.2223 225.13 22.4966C224.673 22.7557 224.315 23.129 224.056 23.6167C223.797 24.0891 223.667 24.6529 223.667 25.3082V25.8568C223.667 26.5273 223.812 27.1216 224.101 27.6397C224.406 28.1426 224.825 28.5311 225.359 28.8054C225.907 29.0645 226.547 29.194 227.279 29.194C227.934 29.194 228.505 29.095 228.993 28.8969C229.496 28.6988 229.953 28.4016 230.365 28.0054L232.262 30.0626C231.698 30.7026 230.989 31.1979 230.136 31.5484C229.283 31.8836 228.3 32.0513 227.187 32.0513ZM22.9539 59.8684V47.5708H35.1829V59.8684H31.617V49.6966L32.4171 50.4966H25.6968L26.4968 49.6966V59.8684H22.9539ZM44.362 60.0513C43.0515 60.0513 41.8857 59.777 40.8647 59.2284C39.859 58.6798 39.0589 57.9331 38.4646 56.9883C37.8855 56.0283 37.596 54.9387 37.596 53.7196C37.596 52.4853 37.8855 51.3957 38.4646 50.4509C39.0589 49.4909 39.859 48.7442 40.8647 48.2108C41.8857 47.6622 43.0515 47.3879 44.362 47.3879C45.6573 47.3879 46.8154 47.6622 47.8364 48.2108C48.8574 48.7442 49.6574 49.4833 50.2365 50.4281C50.8156 51.3728 51.1051 52.47 51.1051 53.7196C51.1051 54.9387 50.8156 56.0283 50.2365 56.9883C49.6574 57.9331 48.8574 58.6798 47.8364 59.2284C46.8154 59.777 45.6573 60.0513 44.362 60.0513ZM44.362 57.1254C44.9563 57.1254 45.4896 56.9883 45.962 56.714C46.4344 56.4397 46.8078 56.0511 47.0821 55.5482C47.3564 55.0301 47.4935 54.4206 47.4935 53.7196C47.4935 53.0034 47.3564 52.3938 47.0821 51.891C46.8078 51.3881 46.4344 50.9995 45.962 50.7252C45.4896 50.4509 44.9563 50.3138 44.362 50.3138C43.7677 50.3138 43.2343 50.4509 42.7619 50.7252C42.2895 50.9995 41.9086 51.3881 41.619 51.891C41.3447 52.3938 41.2076 53.0034 41.2076 53.7196C41.2076 54.4206 41.3447 55.0301 41.619 55.5482C41.9086 56.0511 42.2895 56.4397 42.7619 56.714C43.2343 56.9883 43.7677 57.1254 44.362 57.1254ZM59.6608 60.1427C58.655 60.1427 57.7407 59.9979 56.9178 59.7084C56.0949 59.4036 55.3787 58.9388 54.7692 58.3141C54.1749 57.674 53.7101 56.8588 53.3748 55.8683C53.0548 54.8777 52.8948 53.6967 52.8948 52.3253C52.8948 51.35 52.9786 50.4585 53.1462 49.6509C53.3139 48.8432 53.5653 48.1118 53.9006 47.4565C54.2358 46.786 54.6625 46.1993 55.1806 45.6964C55.714 45.1783 56.3311 44.7516 57.0321 44.4164C57.7483 44.0659 58.556 43.7992 59.4551 43.6164L65.3067 42.4506L65.7867 45.5136L60.6208 46.5422C60.316 46.6031 59.9655 46.687 59.5693 46.7936C59.1884 46.8851 58.7998 47.0298 58.4036 47.2279C58.0226 47.426 57.6645 47.7079 57.3293 48.0737C57.0092 48.4242 56.7502 48.8889 56.5521 49.468C56.354 50.0318 56.2549 50.7328 56.2549 51.571C56.2549 51.83 56.2625 52.0281 56.2778 52.1653C56.3083 52.3024 56.3311 52.4472 56.3464 52.5996C56.3768 52.7519 56.3921 52.9881 56.3921 53.3082L55.2492 52.1881C55.5844 51.4719 56.0111 50.8624 56.5292 50.3595C57.0626 49.8566 57.6721 49.4756 58.3579 49.2166C59.0588 48.9423 59.836 48.8051 60.6894 48.8051C61.8475 48.8051 62.8609 49.0413 63.7295 49.5137C64.6133 49.9709 65.2991 50.6185 65.7867 51.4567C66.2744 52.2948 66.5182 53.2472 66.5182 54.3139C66.5182 55.4721 66.2286 56.493 65.6496 57.3769C65.0705 58.2455 64.2629 58.9236 63.2266 59.4112C62.2056 59.8989 61.017 60.1427 59.6608 60.1427ZM59.8436 57.3769C60.4379 57.3769 60.9637 57.2474 61.4208 56.9883C61.878 56.714 62.2285 56.3559 62.4723 55.914C62.7314 55.4568 62.8609 54.9463 62.8609 54.3825C62.8609 53.8339 62.7314 53.3463 62.4723 52.9196C62.2285 52.4929 61.878 52.1576 61.4208 51.9138C60.9637 51.67 60.4303 51.5481 59.8208 51.5481C59.2265 51.5481 58.6931 51.67 58.2207 51.9138C57.7483 52.1424 57.3826 52.4624 57.1235 52.8739C56.8645 53.2853 56.7349 53.7653 56.7349 54.3139C56.7349 54.8777 56.8645 55.3959 57.1235 55.8683C57.3978 56.3254 57.7636 56.6911 58.2207 56.9654C58.6931 57.2397 59.2341 57.3769 59.8436 57.3769ZM74.9494 60.0513C73.5474 60.0513 72.3131 59.777 71.2464 59.2284C70.1949 58.6798 69.3797 57.9331 68.8006 56.9883C68.2215 56.0283 67.932 54.9387 67.932 53.7196C67.932 52.4853 68.2139 51.3957 68.7777 50.4509C69.3568 49.4909 70.1416 48.7442 71.1321 48.2108C72.1226 47.6622 73.2427 47.3879 74.4922 47.3879C75.6961 47.3879 76.778 47.647 77.7381 48.1651C78.7133 48.668 79.4829 49.3994 80.0467 50.3595C80.6106 51.3043 80.8925 52.4396 80.8925 53.7653C80.8925 53.9025 80.8848 54.0625 80.8696 54.2453C80.8544 54.413 80.8391 54.573 80.8239 54.7254H70.8349V52.6453H78.9495L77.5781 53.2624C77.5781 52.6224 77.4485 52.0662 77.1895 51.5938C76.9304 51.1214 76.5723 50.7557 76.1151 50.4966C75.658 50.2223 75.1246 50.0852 74.5151 50.0852C73.9055 50.0852 73.3646 50.2223 72.8922 50.4966C72.435 50.7557 72.0769 51.129 71.8178 51.6167C71.5588 52.0891 71.4293 52.6529 71.4293 53.3082V53.8568C71.4293 54.5273 71.574 55.1216 71.8636 55.6397C72.1683 56.1426 72.5874 56.5311 73.1207 56.8054C73.6693 57.0645 74.3094 57.194 75.0408 57.194C75.6961 57.194 76.2675 57.095 76.7552 56.8969C77.258 56.6988 77.7152 56.4016 78.1267 56.0054L80.0239 58.0626C79.46 58.7026 78.7514 59.1979 77.8981 59.5484C77.0447 59.8836 76.0618 60.0513 74.9494 60.0513ZM91.9716 58.2683V50.4966H87.9486L87.8801 52.0738C87.8496 52.7291 87.8115 53.3539 87.7658 53.9482C87.72 54.5425 87.6286 55.0835 87.4915 55.5711C87.3696 56.0435 87.1867 56.4473 86.9429 56.7826C86.6991 57.1026 86.3714 57.3236 85.96 57.4455L82.4398 56.9426C82.8818 56.9426 83.2399 56.8131 83.5142 56.554C83.7885 56.2797 84.0018 55.9064 84.1542 55.434C84.3066 54.9463 84.4209 54.3977 84.4971 53.7882C84.5733 53.1634 84.6266 52.5081 84.6571 51.8224L84.8171 47.5708H95.5375V58.2683H91.9716ZM82.0284 62.5199V56.9426H97.2976V62.5199H93.9831V59.8684H85.3428V62.5199H82.0284ZM112.205 59.8684V47.5708H115.748V59.8684H112.205ZM106.01 51.5024C107.626 51.5176 108.837 51.8833 109.645 52.5996C110.468 53.3005 110.879 54.2987 110.879 55.594C110.879 56.9502 110.414 58.0093 109.485 58.7712C108.555 59.5179 107.237 59.8913 105.53 59.8913L99.5416 59.8684V47.5708H103.085V51.5024H106.01ZM105.21 57.354C105.896 57.3693 106.422 57.2245 106.788 56.9197C107.153 56.615 107.336 56.1578 107.336 55.5482C107.336 54.9387 107.153 54.5044 106.788 54.2453C106.422 53.971 105.896 53.8263 105.21 53.811L103.085 53.7882V57.354H105.21Z" fill="white"/>
<path d="M113.056 146.833H115.525V157.5H113.056V146.833ZM108.21 157.5H105.742V146.833H108.21V157.5ZM113.239 153.127H108.028V151.039H113.239V153.127ZM121.855 157.622C120.981 157.622 120.204 157.439 119.523 157.073C118.853 156.708 118.32 156.21 117.923 155.58C117.537 154.94 117.344 154.214 117.344 153.401C117.344 152.578 117.537 151.852 117.923 151.222C118.32 150.582 118.853 150.084 119.523 149.728C120.204 149.363 120.981 149.18 121.855 149.18C122.718 149.18 123.491 149.363 124.171 149.728C124.852 150.084 125.385 150.577 125.771 151.206C126.157 151.836 126.35 152.568 126.35 153.401C126.35 154.214 126.157 154.94 125.771 155.58C125.385 156.21 124.852 156.708 124.171 157.073C123.491 157.439 122.718 157.622 121.855 157.622ZM121.855 155.671C122.251 155.671 122.607 155.58 122.922 155.397C123.237 155.214 123.485 154.955 123.668 154.62C123.851 154.274 123.943 153.868 123.943 153.401C123.943 152.923 123.851 152.517 123.668 152.182C123.485 151.846 123.237 151.587 122.922 151.405C122.607 151.222 122.251 151.13 121.855 151.13C121.459 151.13 121.103 151.222 120.788 151.405C120.473 151.587 120.219 151.846 120.026 152.182C119.843 152.517 119.752 152.923 119.752 153.401C119.752 153.868 119.843 154.274 120.026 154.62C120.219 154.955 120.473 155.214 120.788 155.397C121.103 155.58 121.459 155.671 121.855 155.671ZM127.985 157.5V149.302H132.176C133.202 149.302 134.005 149.49 134.584 149.865C135.163 150.231 135.452 150.749 135.452 151.42C135.452 152.09 135.178 152.619 134.629 153.005C134.091 153.38 133.375 153.568 132.481 153.568L132.725 153.02C133.72 153.02 134.462 153.203 134.949 153.568C135.447 153.934 135.696 154.468 135.696 155.168C135.696 155.89 135.422 156.459 134.873 156.875C134.325 157.292 133.487 157.5 132.359 157.5H127.985ZM130.164 155.885H132.161C132.598 155.885 132.923 155.814 133.136 155.671C133.36 155.519 133.471 155.29 133.471 154.986C133.471 154.671 133.37 154.442 133.167 154.3C132.963 154.147 132.643 154.071 132.206 154.071H130.164V155.885ZM130.164 152.669H131.963C132.379 152.669 132.689 152.593 132.892 152.441C133.106 152.288 133.212 152.07 133.212 151.785C133.212 151.491 133.106 151.272 132.892 151.13C132.689 150.988 132.379 150.917 131.963 150.917H130.164V152.669ZM137.465 157.5V149.302H139.827V154.178L143.819 149.302H145.999V157.5H143.637V152.624L139.659 157.5H137.465ZM148.284 157.5V149.302H150.646V152.502H154.212V149.302H156.589V157.5H154.212V154.437H150.646V157.5H148.284ZM164.67 157.5L161.927 153.614L163.863 152.471L167.474 157.5H164.67ZM158.865 157.5V149.302H161.242V157.5H158.865ZM160.541 154.391V152.486H163.406V154.391H160.541ZM164.091 153.675L161.867 153.431L164.747 149.302H167.276L164.091 153.675ZM168.642 157.5V149.302H171.004V154.178L174.996 149.302H177.175V157.5H174.813V152.624L170.836 157.5H168.642ZM187.616 157.622C186.743 157.622 185.965 157.439 185.285 157.073C184.614 156.708 184.081 156.21 183.685 155.58C183.299 154.94 183.106 154.214 183.106 153.401C183.106 152.578 183.299 151.852 183.685 151.222C184.081 150.582 184.614 150.084 185.285 149.728C185.965 149.363 186.743 149.18 187.616 149.18C188.48 149.18 189.252 149.363 189.933 149.728C190.613 150.084 191.147 150.577 191.533 151.206C191.919 151.836 192.112 152.568 192.112 153.401C192.112 154.214 191.919 154.94 191.533 155.58C191.147 156.21 190.613 156.708 189.933 157.073C189.252 157.439 188.48 157.622 187.616 157.622ZM187.616 155.671C188.013 155.671 188.368 155.58 188.683 155.397C188.998 155.214 189.247 154.955 189.43 154.62C189.613 154.274 189.704 153.868 189.704 153.401C189.704 152.923 189.613 152.517 189.43 152.182C189.247 151.846 188.998 151.587 188.683 151.405C188.368 151.222 188.013 151.13 187.616 151.13C187.22 151.13 186.865 151.222 186.55 151.405C186.235 151.587 185.981 151.846 185.788 152.182C185.605 152.517 185.513 152.923 185.513 153.401C185.513 153.868 185.605 154.274 185.788 154.62C185.981 154.955 186.235 155.214 186.55 155.397C186.865 155.58 187.22 155.671 187.616 155.671ZM195.202 157.5V150.704L195.735 151.252H192.428V149.302H200.337V151.252H197.03L197.564 150.704V157.5H195.202ZM209.547 157.683C208.693 157.683 207.875 157.571 207.093 157.348C206.311 157.114 205.681 156.814 205.204 156.449L206.042 154.589C206.499 154.915 207.037 155.184 207.657 155.397C208.287 155.6 208.922 155.702 209.562 155.702C210.05 155.702 210.441 155.656 210.735 155.565C211.04 155.463 211.264 155.326 211.406 155.153C211.548 154.981 211.619 154.782 211.619 154.559C211.619 154.274 211.507 154.051 211.284 153.888C211.06 153.716 210.766 153.579 210.4 153.477C210.034 153.365 209.628 153.264 209.181 153.172C208.744 153.071 208.302 152.949 207.855 152.806C207.418 152.664 207.017 152.481 206.651 152.258C206.286 152.034 205.986 151.74 205.752 151.374C205.529 151.008 205.417 150.541 205.417 149.972C205.417 149.363 205.58 148.809 205.905 148.311C206.24 147.803 206.738 147.402 207.398 147.107C208.069 146.802 208.907 146.65 209.912 146.65C210.583 146.65 211.243 146.731 211.893 146.894C212.544 147.046 213.118 147.28 213.615 147.595L212.853 149.469C212.356 149.185 211.858 148.977 211.36 148.844C210.862 148.702 210.375 148.631 209.897 148.631C209.42 148.631 209.029 148.687 208.724 148.799C208.419 148.91 208.201 149.058 208.069 149.241C207.936 149.413 207.87 149.617 207.87 149.85C207.87 150.124 207.982 150.348 208.206 150.521C208.429 150.683 208.724 150.815 209.089 150.917C209.455 151.018 209.857 151.12 210.293 151.222C210.74 151.323 211.182 151.44 211.619 151.572C212.066 151.704 212.472 151.882 212.838 152.106C213.204 152.329 213.499 152.624 213.722 152.989C213.956 153.355 214.073 153.817 214.073 154.376C214.073 154.975 213.905 155.524 213.57 156.022C213.234 156.52 212.732 156.921 212.061 157.226C211.401 157.53 210.563 157.683 209.547 157.683ZM219.051 157.622C218.37 157.622 217.761 157.49 217.222 157.226C216.694 156.962 216.283 156.56 215.988 156.022C215.693 155.473 215.546 154.777 215.546 153.934V149.302H217.923V153.584C217.923 154.264 218.066 154.767 218.35 155.092C218.645 155.407 219.056 155.565 219.584 155.565C219.95 155.565 220.275 155.488 220.56 155.336C220.844 155.174 221.068 154.93 221.23 154.605C221.393 154.269 221.474 153.853 221.474 153.355V149.302H223.851V157.5H221.596V155.245L222.007 155.9C221.733 156.469 221.327 156.901 220.788 157.195C220.26 157.48 219.681 157.622 219.051 157.622ZM230.899 157.622C230.209 157.622 229.604 157.47 229.086 157.165C228.568 156.86 228.161 156.398 227.867 155.778C227.582 155.148 227.44 154.356 227.44 153.401C227.44 152.436 227.577 151.643 227.852 151.024C228.126 150.404 228.522 149.942 229.04 149.637C229.558 149.332 230.178 149.18 230.899 149.18C231.671 149.18 232.362 149.357 232.972 149.713C233.592 150.058 234.079 150.546 234.435 151.176C234.8 151.806 234.983 152.547 234.983 153.401C234.983 154.264 234.8 155.011 234.435 155.641C234.079 156.271 233.592 156.758 232.972 157.104C232.362 157.449 231.671 157.622 230.899 157.622ZM226.053 160.456V149.302H228.324V150.978L228.278 153.416L228.431 155.839V160.456H226.053ZM230.488 155.671C230.884 155.671 231.235 155.58 231.539 155.397C231.854 155.214 232.103 154.955 232.286 154.62C232.479 154.274 232.576 153.868 232.576 153.401C232.576 152.923 232.479 152.517 232.286 152.182C232.103 151.846 231.854 151.587 231.539 151.405C231.235 151.222 230.884 151.13 230.488 151.13C230.092 151.13 229.736 151.222 229.421 151.405C229.106 151.587 228.857 151.846 228.675 152.182C228.492 152.517 228.4 152.923 228.4 153.401C228.4 153.868 228.492 154.274 228.675 154.62C228.857 154.955 229.106 155.214 229.421 155.397C229.736 155.58 230.092 155.671 230.488 155.671ZM240.643 157.622C239.709 157.622 238.886 157.439 238.175 157.073C237.474 156.708 236.93 156.21 236.544 155.58C236.158 154.94 235.965 154.214 235.965 153.401C235.965 152.578 236.153 151.852 236.529 151.222C236.915 150.582 237.438 150.084 238.099 149.728C238.759 149.363 239.506 149.18 240.339 149.18C241.141 149.18 241.863 149.352 242.503 149.698C243.153 150.033 243.666 150.521 244.042 151.161C244.418 151.791 244.605 152.547 244.605 153.431C244.605 153.523 244.6 153.629 244.59 153.751C244.58 153.863 244.57 153.97 244.56 154.071H237.9V152.685H243.31L242.396 153.096C242.396 152.669 242.31 152.299 242.137 151.984C241.964 151.669 241.725 151.425 241.421 151.252C241.116 151.069 240.76 150.978 240.354 150.978C239.948 150.978 239.587 151.069 239.272 151.252C238.967 151.425 238.728 151.674 238.556 151.999C238.383 152.314 238.297 152.69 238.297 153.127V153.492C238.297 153.939 238.393 154.335 238.586 154.681C238.789 155.016 239.069 155.275 239.424 155.458C239.79 155.631 240.217 155.717 240.704 155.717C241.141 155.717 241.522 155.651 241.847 155.519C242.183 155.387 242.487 155.189 242.762 154.925L244.026 156.296C243.651 156.723 243.178 157.053 242.609 157.287C242.04 157.51 241.385 157.622 240.643 157.622ZM246.188 157.5V149.302H248.459V151.618L248.139 150.947C248.383 150.368 248.774 149.931 249.312 149.637C249.851 149.332 250.506 149.18 251.278 149.18V151.374C251.176 151.364 251.085 151.359 251.004 151.359C250.922 151.349 250.836 151.344 250.745 151.344C250.094 151.344 249.566 151.532 249.16 151.907C248.763 152.273 248.565 152.847 248.565 153.629V157.5H246.188ZM255.509 157.622C254.808 157.622 254.133 157.541 253.482 157.378C252.842 157.205 252.334 156.992 251.958 156.738L252.751 155.031C253.127 155.265 253.569 155.458 254.077 155.61C254.595 155.753 255.103 155.824 255.601 155.824C256.149 155.824 256.535 155.758 256.759 155.626C256.992 155.494 257.109 155.311 257.109 155.077C257.109 154.884 257.018 154.742 256.835 154.65C256.662 154.549 256.429 154.473 256.134 154.422C255.839 154.371 255.514 154.32 255.159 154.269C254.813 154.219 254.463 154.153 254.107 154.071C253.752 153.98 253.426 153.848 253.132 153.675C252.837 153.502 252.599 153.269 252.416 152.974C252.243 152.68 252.157 152.299 252.157 151.831C252.157 151.313 252.304 150.856 252.599 150.46C252.903 150.064 253.34 149.754 253.909 149.53C254.478 149.297 255.159 149.18 255.951 149.18C256.51 149.18 257.079 149.241 257.658 149.363C258.237 149.484 258.719 149.662 259.105 149.896L258.313 151.587C257.917 151.354 257.516 151.196 257.109 151.115C256.713 151.024 256.327 150.978 255.951 150.978C255.423 150.978 255.037 151.049 254.793 151.191C254.549 151.333 254.427 151.516 254.427 151.74C254.427 151.943 254.514 152.095 254.686 152.197C254.869 152.299 255.108 152.38 255.402 152.441C255.697 152.502 256.017 152.558 256.362 152.608C256.718 152.649 257.074 152.715 257.429 152.806C257.785 152.898 258.105 153.03 258.389 153.203C258.684 153.365 258.923 153.594 259.105 153.888C259.288 154.173 259.38 154.549 259.38 155.016C259.38 155.524 259.227 155.976 258.923 156.372C258.618 156.758 258.176 157.063 257.597 157.287C257.028 157.51 256.332 157.622 255.509 157.622ZM264.199 157.622C263.234 157.622 262.482 157.378 261.944 156.89C261.405 156.393 261.136 155.656 261.136 154.681V147.488H263.513V154.65C263.513 154.996 263.605 155.265 263.788 155.458C263.97 155.641 264.219 155.732 264.534 155.732C264.91 155.732 265.23 155.631 265.494 155.428L266.134 157.104C265.89 157.276 265.596 157.409 265.25 157.5C264.915 157.581 264.565 157.622 264.199 157.622ZM259.871 151.313V149.484H265.555V151.313H259.871ZM272.497 157.5V155.9L272.345 155.549V152.685C272.345 152.177 272.188 151.78 271.873 151.496C271.568 151.212 271.096 151.069 270.456 151.069C270.019 151.069 269.587 151.14 269.16 151.283C268.744 151.415 268.388 151.598 268.094 151.831L267.24 150.17C267.687 149.855 268.226 149.611 268.855 149.439C269.485 149.266 270.125 149.18 270.776 149.18C272.025 149.18 272.995 149.474 273.686 150.064C274.377 150.653 274.722 151.572 274.722 152.822V157.5H272.497ZM269.998 157.622C269.358 157.622 268.81 157.515 268.353 157.302C267.895 157.078 267.545 156.779 267.301 156.403C267.057 156.027 266.935 155.605 266.935 155.138C266.935 154.65 267.052 154.224 267.286 153.858C267.53 153.492 267.911 153.208 268.429 153.005C268.947 152.791 269.622 152.685 270.456 152.685H272.635V154.071H270.715C270.156 154.071 269.77 154.163 269.556 154.346C269.353 154.528 269.252 154.757 269.252 155.031C269.252 155.336 269.368 155.58 269.602 155.763C269.846 155.935 270.176 156.022 270.593 156.022C270.989 156.022 271.344 155.93 271.659 155.748C271.974 155.555 272.203 155.275 272.345 154.909L272.711 156.007C272.538 156.535 272.223 156.936 271.766 157.21C271.309 157.485 270.72 157.622 269.998 157.622ZM276.874 157.5V149.302H279.144V151.618L278.824 150.947C279.068 150.368 279.459 149.931 279.998 149.637C280.536 149.332 281.191 149.18 281.964 149.18V151.374C281.862 151.364 281.771 151.359 281.689 151.359C281.608 151.349 281.522 151.344 281.43 151.344C280.78 151.344 280.252 151.532 279.845 151.907C279.449 152.273 279.251 152.847 279.251 153.629V157.5H276.874Z" fill="white"/>
<path d="M271.024 41.4417L276.64 43.5347H303.68L310.336 41.4417H356.096L379.6 79.744L356.096 120.767L310.336 121.814L303.68 119.721H276.64L271.024 121.814V127.884H263.952L264.784 121.814H261.456L260 127.884L224.848 127.674L226.096 121.814H222.768L221.728 127.674H216.112L217.36 121.814H211.952V131.023H209.248L208 138.558H201.968L203.216 131.023H198.224L196.976 138.558H191.36L192.608 131.023H190.32L192.608 51.9068H176.8L178.464 41.4417H211.952H271.024Z" fill="#9A8E9D"/>
<path d="M271.024 121.814L276.64 119.721H303.68L310.336 121.814L356.096 120.767L379.6 79.744L356.096 41.4417H310.336L303.68 43.5347H276.64L271.024 41.4417H211.952M271.024 121.814V127.884H263.952L264.784 121.814H261.456L260 127.884L224.848 127.674L226.096 121.814H222.768L221.728 127.674H216.112L217.36 121.814M271.024 121.814H217.36M217.36 121.814H211.952M211.952 121.814V131.023H209.248L208 138.558H201.968L203.216 131.023H198.224L196.976 138.558H191.36L192.608 131.023H190.32L192.608 51.9068H176.8L178.464 41.4417H211.952M211.952 121.814V41.4417" stroke="black" stroke-width="0.190483"/>
<path d="M195.52 121.573V112.155C196.144 110.775 198.526 111.434 199.264 112.155V123.248C197.14 123.093 196.21 122.808 195.52 121.573Z" fill="#1E1D3F" stroke="black" stroke-width="0.190483"/>
<path d="M195.52 96.0386V86.62C196.144 85.2399 198.526 85.8995 199.264 86.62V97.713C197.14 97.5582 196.21 97.2728 195.52 96.0386Z" fill="#1E1D3F" stroke="black" stroke-width="0.190483"/>
<path d="M195.52 77.2014V67.7828C196.144 66.4028 198.525 67.0623 199.264 67.7828V78.8758C197.14 78.721 196.21 78.4356 195.52 77.2014Z" fill="#1E1D3F" stroke="black" stroke-width="0.190483"/>
<path d="M203.424 110.093L206.336 107.163H209.248C209.179 112.465 209.082 123.07 209.248 123.07H205.504L203.424 119.93V110.093Z" stroke="black" stroke-width="0.190483"/>
<ellipse cx="206.752" cy="111.767" rx="1.664" ry="1.67442" fill="black"/>
<ellipse cx="206.752" cy="117.628" rx="1.664" ry="1.67442" fill="black"/>
<path d="M202.176 63.2091V59.4417L209.664 72.2091L202.176 83.93V79.9533L207.376 71.5812L202.176 63.2091Z" fill="#1E1D3F" stroke="black" stroke-width="0.190483"/>
<path d="M210.288 79.7442L208.416 78.907L203.216 87.6977V91.2558L210.288 79.7442Z" fill="#1E1D3F" stroke="black" stroke-width="0.190483"/>
<path d="M209.456 90.4184L207.584 89.7905L203.008 96.2789L205.088 97.3254L209.456 90.4184Z" fill="#1E1D3F" stroke="black" stroke-width="0.190483"/>
<path d="M203.008 55.4652V51.6978L210.496 63.4187L208.416 64.4652L203.008 55.4652Z" fill="#1E1D3F" stroke="black" stroke-width="0.190483"/>
<path d="M205.92 47.3022L203.84 47.9302L208.208 55.2557L209.872 54.2092L205.92 47.3022Z" fill="#1E1D3F" stroke="black" stroke-width="0.190483"/>
<path d="M238.784 41.4417H231.504L236.288 50.651C230.256 52.3254 215.904 73.2556 217.152 82.8835C218.4 92.5114 231.504 112.814 236.288 114.07L231.504 121.814H238.784L243.36 115.325H248.352L245.024 121.814H252.512L256.464 115.325H264.576L259.792 121.814H267.488C278.822 106.015 287.248 83.5114 287.04 79.9533C286.832 76.3951 277.34 55.991 267.488 41.4417H259.792L264.576 48.1393H256.464L252.512 41.4417H245.024L248.352 48.1393H243.36L238.784 41.4417Z" fill="#B06664" stroke="black" stroke-width="0.190483"/>
<path d="M315.404 41.4417H308.124L312.908 50.651C306.877 52.3254 292.524 73.2556 293.772 82.8835C295.02 92.5114 308.124 112.814 312.908 114.07L308.88 121.395C309.912 121.914 311.52 121.947 315.952 121.604L319.98 115.325H324.972L321.644 121.395H329.68L333.084 115.325H341.196L337.168 120.977H344.108C355.442 105.178 363.868 83.5114 363.66 79.9533C363.452 76.3951 353.96 55.991 344.108 41.4417H336.412L341.196 48.1393H333.084L329.132 41.4417H321.644L324.972 48.1393H319.98L315.404 41.4417Z" fill="#B06664" stroke="black" stroke-width="0.190483"/>
<path d="M337.904 82.7305C337.789 80.886 337.67 79.5011 336.33 77.904C343.402 70.3976 344.199 56.1845 345.576 54.9778C346.953 53.7712 357.182 71.6697 357.182 71.6697C354.553 78.2913 348.312 81.3456 337.904 82.7305Z" fill="black" stroke="#9A8E9D" stroke-width="0.190483"/>
<path d="M334.885 89.1924C336.226 87.9737 337.303 86.9943 337.707 84.9428C348.44 86.6275 357.383 78.4226 359.935 78.1052C362.488 77.7878 356.433 97.8337 355.257 97.9335C348.534 99.892 342.338 96.7453 334.862 89.2127L334.885 89.1924Z" fill="black" stroke="#9A8E9D" stroke-width="0.190483"/>
<path d="M328.015 90.9428C329.808 91.1795 331.197 91.4128 332.986 90.3727C338.19 100.242 349.147 101.063 351.084 104.048C353.02 107.032 336.46 114.345 333.773 112.494C327.917 108.592 327.358 101.653 328.015 90.9428Z" fill="black" stroke="#9A8E9D" stroke-width="0.190483"/>
<path d="M322.56 85.9483C323.033 87.7324 324.083 88.4774 325.708 89.7693C320.802 105.25 327.802 110.52 326.228 112.531C324.653 114.542 307.313 107.593 308.524 101.671C307.997 101.159 315.077 88.2978 322.56 85.9483Z" fill="black" stroke="#9A8E9D" stroke-width="0.190483"/>
<path d="M323.151 79.1107C322.144 80.6455 322.055 81.635 322.167 83.7361C307.52 90.1076 306.784 97.7087 304.266 97.8136C301.749 97.9184 295.756 80.855 300.922 77.904C300.955 77.1616 316.506 74.8778 323.151 79.1107Z" fill="black" stroke="#9A8E9D" stroke-width="0.190483"/>
<path d="M328.265 75.0884C326.504 75.5087 325.252 75.8574 323.933 77.4722C310.73 70.408 310.518 72.4697 303.282 73.2785C296.046 74.0872 309.731 55.7462 315.478 57.1899C315.997 56.67 326.229 67.3602 328.265 75.0884Z" fill="black" stroke="#9A8E9D" stroke-width="0.190483"/>
<path d="M334.801 76.3078C333.364 75.1862 332.002 74.9207 329.944 74.9069C325.904 60.2066 324.331 59.1134 318.823 55.3362C313.315 51.559 336.354 49.8843 338.92 55.3362C341.248 55.9489 339.34 69.7862 334.801 76.3078Z" fill="black" stroke="#9A8E9D" stroke-width="0.190483"/>
<path d="M338.006 82.9317C338.006 87.4348 334.435 91.0818 330.035 91.0818C325.636 91.0818 322.065 87.4348 322.065 82.9317C322.065 78.4285 325.636 74.7815 330.035 74.7815C334.435 74.7815 338.006 78.4285 338.006 82.9317Z" fill="black" stroke="#9A8E9D" stroke-width="0.190483"/>
<path d="M337.904 82.7305C337.789 80.886 337.67 79.5011 336.33 77.904C343.402 70.3976 344.199 56.1845 345.576 54.9778C346.953 53.7712 357.182 71.6697 357.182 71.6697C354.553 78.2913 348.312 81.3456 337.904 82.7305Z" fill="black" stroke="#9A8E9D" stroke-width="0.190483"/>
<path d="M334.885 89.1924C336.226 87.9737 337.303 86.9943 337.707 84.9428C348.44 86.6275 357.383 78.4226 359.935 78.1052C362.488 77.7878 356.433 97.8337 355.257 97.9335C348.534 99.892 342.338 96.7453 334.862 89.2127L334.885 89.1924Z" fill="black" stroke="#9A8E9D" stroke-width="0.190483"/>
<path d="M328.015 90.9428C329.808 91.1795 331.197 91.4128 332.986 90.3727C338.19 100.242 349.147 101.063 351.084 104.048C353.02 107.032 336.46 114.345 333.773 112.494C327.917 108.592 327.358 101.653 328.015 90.9428Z" fill="black" stroke="#9A8E9D" stroke-width="0.190483"/>
<path d="M322.56 85.9483C323.033 87.7324 324.083 88.4774 325.708 89.7693C320.802 105.25 327.802 110.52 326.228 112.531C324.653 114.542 307.313 107.593 308.524 101.671C307.997 101.159 315.077 88.2978 322.56 85.9483Z" fill="black" stroke="#9A8E9D" stroke-width="0.190483"/>
<path d="M323.151 79.1107C322.144 80.6455 322.055 81.635 322.167 83.7361C307.52 90.1076 306.784 97.7087 304.266 97.8136C301.749 97.9184 295.756 80.855 300.922 77.904C300.955 77.1616 316.506 74.8778 323.151 79.1107Z" fill="black" stroke="#9A8E9D" stroke-width="0.190483"/>
<path d="M328.265 75.0884C326.504 75.5087 325.252 75.8574 323.933 77.4722C310.73 70.408 310.518 72.4697 303.282 73.2785C296.046 74.0872 309.731 55.7462 315.478 57.1899C315.997 56.67 326.229 67.3602 328.265 75.0884Z" fill="black" stroke="#9A8E9D" stroke-width="0.190483"/>
<path d="M334.801 76.3078C333.364 75.1862 332.002 74.9207 329.944 74.9069C325.904 60.2066 324.331 59.1134 318.823 55.3362C313.315 51.559 336.354 49.8843 338.92 55.3362C341.248 55.9489 339.34 69.7862 334.801 76.3078Z" fill="black" stroke="#9A8E9D" stroke-width="0.190483"/>
<path d="M338.006 82.9317C338.006 87.4348 334.435 91.0818 330.035 91.0818C325.636 91.0818 322.065 87.4348 322.065 82.9317C322.065 78.4285 325.636 74.7815 330.035 74.7815C334.435 74.7815 338.006 78.4285 338.006 82.9317Z" fill="black" stroke="#9A8E9D" stroke-width="0.190483"/>
<path d="M260.112 82.3118C259.997 80.4673 259.878 79.0824 258.538 77.4853C265.61 69.9789 266.406 55.7658 267.783 54.5591C269.16 53.3525 279.39 71.251 279.39 71.251C276.76 77.8726 270.52 80.9269 260.112 82.3118Z" fill="black" stroke="#9A8E9D" stroke-width="0.190483"/>
<path d="M257.092 88.7737C258.433 87.555 259.511 86.5756 259.914 84.5241C270.648 86.2088 279.59 78.0039 282.143 77.6865C284.696 77.3691 278.641 97.415 277.464 97.5148C270.742 99.4733 264.546 96.3266 257.07 88.794L257.092 88.7737Z" fill="black" stroke="#9A8E9D" stroke-width="0.190483"/>
<path d="M250.222 90.5241C252.015 90.7608 253.405 90.9941 255.194 89.954C260.397 99.8233 271.355 100.645 273.292 103.629C275.228 106.614 258.668 113.926 255.981 112.076C250.125 108.174 249.566 101.234 250.222 90.5241Z" fill="black" stroke="#9A8E9D" stroke-width="0.190483"/>
<path d="M244.768 85.5296C245.24 87.3137 246.291 88.0587 247.915 89.3506C243.01 104.832 250.009 110.101 248.435 112.112C246.861 114.123 229.52 107.175 230.731 101.252C230.205 100.74 237.284 87.8791 244.768 85.5296Z" fill="black" stroke="#9A8E9D" stroke-width="0.190483"/>
<path d="M245.358 78.692C244.351 80.2268 244.263 81.2163 244.375 83.3174C229.728 89.6889 228.991 97.29 226.474 97.3949C223.956 97.4997 217.963 80.4363 223.129 77.4853C223.162 76.7429 238.714 74.4591 245.358 78.692Z" fill="black" stroke="#9A8E9D" stroke-width="0.190483"/>
<path d="M250.473 74.6697C248.712 75.09 247.46 75.4387 246.141 77.0535C232.938 69.9893 232.726 72.051 225.49 72.8598C218.254 73.6685 231.939 55.3275 237.686 56.7712C238.205 56.2513 248.437 66.9415 250.473 74.6697Z" fill="black" stroke="#9A8E9D" stroke-width="0.190483"/>
<path d="M257.009 75.8891C255.572 74.7675 254.21 74.502 252.151 74.4882C248.112 59.7879 246.538 58.6947 241.03 54.9175C235.523 51.1403 258.562 49.4656 261.128 54.9175C263.456 55.5302 261.548 69.3675 257.009 75.8891Z" fill="black" stroke="#9A8E9D" stroke-width="0.190483"/>
<path d="M260.213 82.513C260.213 87.0161 256.643 90.6631 252.243 90.6631C247.844 90.6631 244.273 87.0161 244.273 82.513C244.273 78.0098 247.844 74.3628 252.243 74.3628C256.643 74.3628 260.213 78.0098 260.213 82.513Z" fill="black" stroke="#9A8E9D" stroke-width="0.190483"/>
<path d="M218.816 127.674H217.568V125.163H218.816V127.674Z" fill="#EFC58C"/>
<path d="M220.896 127.674H219.648V125.163H220.896V127.674Z" fill="#EFC58C"/>
<path d="M229.632 127.674H228.384V125.163H229.632V127.674Z" fill="#EFC58C"/>
<path d="M231.712 127.674H230.464V125.163H231.712V127.674Z" fill="#EFC58C"/>
<path d="M233.792 127.674H232.544V125.163H233.792V127.674Z" fill="#EFC58C"/>
<path d="M235.872 127.674H234.624V125.163H235.872V127.674Z" fill="#EFC58C"/>
<path d="M238.368 127.674H237.12V125.163H238.368V127.674Z" fill="#EFC58C"/>
<path d="M240.448 127.674H239.2V125.163H240.448V127.674Z" fill="#EFC58C"/>
<path d="M242.528 127.674H241.28V125.163H242.528V127.674Z" fill="#EFC58C"/>
<path d="M244.608 127.674H243.36V125.163H244.608V127.674Z" fill="#EFC58C"/>
<path d="M246.688 127.674H245.44V125.163H246.688V127.674Z" fill="#EFC58C"/>
<path d="M248.768 127.674H247.52V125.163H248.768V127.674Z" fill="#EFC58C"/>
<path d="M250.848 127.674H249.6V125.163H250.848V127.674Z" fill="#EFC58C"/>
<path d="M252.928 127.674H251.68V125.163H252.928V127.674Z" fill="#EFC58C"/>
<path d="M255.424 127.674H254.176V125.163H255.424V127.674Z" fill="#EFC58C"/>
<path d="M257.92 127.674H256.672V125.163H257.92V127.674Z" fill="#EFC58C"/>
<path d="M266.24 127.674H264.992V125.163H266.24V127.674Z" fill="#EFC58C"/>
<path d="M268.32 127.674H267.072V125.163H268.32V127.674Z" fill="#EFC58C"/>
<path d="M270.4 127.674H269.152V125.163H270.4V127.674Z" fill="#EFC58C"/>
<path d="M282.256 50.6509L276.64 43.5347H303.472L306.8 50.6509H282.256Z" fill="#1E1D3F"/>
<path d="M297.89 112.604L302.848 119.721L279.161 119.721L276.224 112.604L297.89 112.604Z" fill="#1E1D3F"/>
<ellipse cx="363.168" cy="119.721" rx="12.48" ry="12.5581" fill="#FD1205"/>
<path d="M353.816 121.697V116.364H354.837L357.984 120.204H357.489V116.364H358.708V121.697H357.694L354.54 117.857H355.035V121.697H353.816ZM361.92 121.758C361.453 121.758 361.041 121.667 360.686 121.484C360.335 121.301 360.063 121.052 359.87 120.737C359.677 120.417 359.581 120.054 359.581 119.648C359.581 119.236 359.675 118.873 359.863 118.558C360.056 118.238 360.317 117.989 360.648 117.811C360.978 117.629 361.351 117.537 361.768 117.537C362.169 117.537 362.53 117.623 362.85 117.796C363.175 117.964 363.431 118.208 363.619 118.528C363.807 118.843 363.901 119.221 363.901 119.663C363.901 119.709 363.899 119.762 363.893 119.823C363.888 119.879 363.883 119.932 363.878 119.983H360.549V119.29H363.253L362.796 119.495C362.796 119.282 362.753 119.097 362.667 118.939C362.58 118.782 362.461 118.66 362.309 118.573C362.156 118.482 361.978 118.436 361.775 118.436C361.572 118.436 361.392 118.482 361.234 118.573C361.082 118.66 360.963 118.784 360.876 118.947C360.79 119.104 360.747 119.292 360.747 119.511V119.693C360.747 119.917 360.795 120.115 360.891 120.288C360.993 120.455 361.133 120.585 361.311 120.676C361.493 120.763 361.707 120.806 361.951 120.806C362.169 120.806 362.359 120.773 362.522 120.707C362.69 120.641 362.842 120.542 362.979 120.41L363.612 121.095C363.424 121.309 363.187 121.474 362.903 121.591C362.618 121.702 362.291 121.758 361.92 121.758ZM365.555 121.697L364.077 117.598H365.197L366.424 121.126H365.89L367.17 117.598H368.176L369.418 121.126H368.885L370.15 117.598H371.201L369.715 121.697H368.565L367.475 118.672H367.826L366.698 121.697H365.555Z" fill="white"/>
<defs>
<linearGradient id="paint0_linear_627_352" x1="0" y1="0" x2="226.35" y2="178.624" gradientUnits="userSpaceOnUse">
<stop stop-color="#9224A5"/>
<stop offset="1" stop-color="#760589" stop-opacity="0.42"/>
</linearGradient>
</defs>
</svg>
